<?xml version="1.0"?>
<svg xmlns="http://www.w3.org/2000/svg" version="1.1" width="196mm" height="213mm" viewBox="0 0 140.1667 152.1667" preserveAspectRatio="none" xmlns:xlink="http://www.w3.org/1999/xlink">
  <defs>
  </defs>
  <path d="M0,0 L140.166656494141,0 L140.166656494141,152.166656494141 L0,152.166656494141  z" stroke="none" fill="#FFFFFF" fill-rule="evenodd" stroke-width="0" fill-opacity="1" />
  <path d="M55.6666641235352,9.66666698455811 L95.6666641235352,9.66666698455811 L95.6666641235352,129.666656494141 L55.6666641235352,129.666656494141 L55.6666641235352,9.66666698455811  z" stroke="none" fill="none" fill-rule="nonzero" stroke-width="0" fill-opacity="0" />
  <path d="M55.6666641235352,9.66666698455811 L95.6666641235352,9.66666698455811 L95.6666641235352,129.666656494141 L55.6666641235352,129.666656494141 L55.6666641235352,9.66666698455811  z" stroke="#BEBEBE" fill="none" stroke-width="1" stroke-opacity="1" />
  <path d="M57.6666641235352,8.11263084411621 L72.6921615600586,8.11263084411621 L72.6921615600586,11.220703125 L57.6666641235352,11.220703125 L57.6666641235352,8.11263084411621  z" stroke="none" fill="#FFFFFF" fill-rule="nonzero" stroke-width="0" fill-opacity="1" />
  <text x="58.6666679382324" y="10.4459638595581" dx="0" dy="0" font-family="Tahoma" font-size="1.39999991059304pt" fill="#000000" style="text-anchor:start">O01 Person</text>
  <path d="M57.6666641235352,8.11263084411621 L72.6921615600586,8.11263084411621 L72.6921615600586,11.220703125 L57.6666641235352,11.220703125 L57.6666641235352,8.11263084411621  z" stroke="#FFFFFF" fill="none" stroke-width="0.3333333" stroke-opacity="1" />
  <path d="M7.66666698455811,49.6666641235352 L27.6666660308838,49.6666641235352 L27.6666660308838,129.666656494141 L7.66666698455811,129.666656494141 L7.66666698455811,49.6666641235352  z" stroke="none" fill="none" fill-rule="nonzero" stroke-width="0" fill-opacity="0" />
  <path d="M7.66666698455811,49.6666641235352 L27.6666660308838,49.6666641235352 L27.6666660308838,129.666656494141 L7.66666698455811,129.666656494141 L7.66666698455811,49.6666641235352  z" stroke="#BEBEBE" fill="none" stroke-width="1" stroke-opacity="1" />
  <path d="M9.66666698455811,48.1126289367676 L23.6986751556396,48.1126289367676 L23.6986751556396,51.220703125 L9.66666698455811,51.220703125 L9.66666698455811,48.1126289367676  z" stroke="none" fill="#FFFFFF" fill-rule="nonzero" stroke-width="0" fill-opacity="1" />
  <text x="10.6666679382324" y="50.4459648132324" dx="0" dy="0" font-family="Tahoma" font-size="1.39999991059304pt" fill="#000000" style="text-anchor:start">O03 Deme</text>
  <path d="M9.66666698455811,48.1126289367676 L23.6986751556396,48.1126289367676 L23.6986751556396,51.220703125 L9.66666698455811,51.220703125 L9.66666698455811,48.1126289367676  z" stroke="#FFFFFF" fill="none" stroke-width="0.3333333" stroke-opacity="1" />
  <path d="M9.66666698455811,71.6666641235352 L25.6666660308838,71.6666641235352 L25.6666660308838,87.6666641235352 L9.66666698455811,87.6666641235352  z" stroke="none" fill="#FFFFFF" fill-rule="evenodd" stroke-width="0" fill-opacity="1" />
  <path d="M9.66666698455811,71.6666641235352 L25.6666660308838,71.6666641235352 " stroke="#000000" fill="none" stroke-width="0.3333333" stroke-opacity="1" />
  <path d="M9.66666698455811,71.6666641235352 L25.6666660308838,71.6666641235352 L25.6666660308838,87.6666641235352 L9.66666698455811,87.6666641235352  z" stroke="#000000" fill="none" stroke-width="0.3333333" stroke-opacity="1" />
  <text x="15.2446565628052" y="75.4459609985352" dx="0" dy="0" font-family="Tahoma" font-size="1.39999991059304pt" fill="#000000" style="text-anchor:start">A31</text>
  <text x="13.4143342971802" y="81.87109375" dx="0" dy="0" font-family="Tahoma" font-size="1.39999991059304pt" fill="#000000" style="text-anchor:start">Partner </text>
  <text x="12.8811311721802" y="84.2044219970703" dx="0" dy="0" font-family="Tahoma" font-size="1.39999991059304pt" fill="#000000" style="text-anchor:start">Adjuster</text>
  <path d="M77.6666641235352,11.6666669845581 L93.6666641235352,11.6666669845581 L93.6666641235352,27.6666660308838 L77.6666641235352,27.6666660308838  z" stroke="none" fill="#FFFFFF" fill-rule="evenodd" stroke-width="0" fill-opacity="1" />
  <path d="M77.6666641235352,11.6666669845581 L93.6666641235352,11.6666669845581 " stroke="#000000" fill="none" stroke-width="0.3333333" stroke-opacity="1" />
  <path d="M77.6666641235352,11.6666669845581 L93.6666641235352,11.6666669845581 L93.6666641235352,27.6666660308838 L77.6666641235352,27.6666660308838  z" stroke="#000000" fill="none" stroke-width="0.3333333" stroke-opacity="1" />
  <text x="83.2446517944336" y="15.4459638595581" dx="0" dy="0" font-family="Tahoma" font-size="1.39999991059304pt" fill="#000000" style="text-anchor:start">A11</text>
  <text x="81.2007064819336" y="23.279296875" dx="0" dy="0" font-family="Tahoma" font-size="1.39999991059304pt" fill="#000000" style="text-anchor:start">Afflictor</text>
  <path d="M117.666664123535,9.66666698455811 L137.666656494141,9.66666698455811 L137.666656494141,45.6666641235352 L117.666664123535,45.6666641235352 L117.666664123535,9.66666698455811  z" stroke="none" fill="none" fill-rule="nonzero" stroke-width="0" fill-opacity="0" />
  <path d="M117.666664123535,9.66666698455811 L137.666656494141,9.66666698455811 L137.666656494141,45.6666641235352 L117.666664123535,45.6666641235352 L117.666664123535,9.66666698455811  z" stroke="#BEBEBE" fill="none" stroke-width="1" stroke-opacity="1" />
  <path d="M119.082382202148,8.11263084411621 L136.250946044922,8.11263084411621 L136.250946044922,11.220703125 L119.082382202148,11.220703125 L119.082382202148,8.11263084411621  z" stroke="none" fill="#FFFFFF" fill-rule="nonzero" stroke-width="0" fill-opacity="1" />
  <text x="120.082382202148" y="10.4459638595581" dx="0" dy="0" font-family="Tahoma" font-size="1.39999991059304pt" fill="#000000" style="text-anchor:start">O02 Transmit</text>
  <path d="M119.082382202148,8.11263084411621 L136.250946044922,8.11263084411621 L136.250946044922,11.220703125 L119.082382202148,11.220703125 L119.082382202148,8.11263084411621  z" stroke="#FFFFFF" fill="none" stroke-width="0.3333333" stroke-opacity="1" />
  <path d="M91.6666564941406,99.6666564941406 C91.6666564941406,102.980369567871 88.9803695678711,105.666656494141 85.6666641235352,105.666656494141 C82.3529510498047,105.666664123535 79.6666641235352,102.980369567871 79.6666564941406,99.6666641235352 C79.6666564941406,96.3529510498047 82.3529510498047,93.6666641235352 85.6666564941406,93.6666641235352 C88.9803619384766,93.6666564941406 91.6666564941406,96.3529510498047 91.6666564941406,99.6666564941406 " stroke="none" fill="#FFFFFF" fill-rule="nonzero" stroke-width="0" fill-opacity="1" />
  <text x="83.2634506225586" y="100.445960998535" dx="0" dy="0" font-family="Tahoma" font-size="1.39999991059304pt" fill="#000000" style="text-anchor:start">T17</text>
  <path d="M91.6666564941406,99.6666564941406 C91.6666564941406,102.980369567871 88.9803695678711,105.666656494141 85.6666641235352,105.666656494141 C82.3529510498047,105.666664123535 79.6666641235352,102.980369567871 79.6666564941406,99.6666641235352 C79.6666564941406,96.3529510498047 82.3529510498047,93.6666641235352 85.6666564941406,93.6666641235352 C88.9803619384766,93.6666564941406 91.6666564941406,96.3529510498047 91.6666564941406,99.6666564941406 " stroke="#000000" fill="none" stroke-width="0.3333333" stroke-opacity="1" />
  <path d="M85.6666641235352,93.6666641235352 L91.6666641235352,99.6666641235352 L85.6666641235352,105.666664123535 L79.6666641235352,99.6666641235352 L85.6666641235352,93.6666641235352  z" stroke="none" fill="none" fill-rule="nonzero" stroke-width="0" fill-opacity="0" />
  <path d="M85.6666641235352,93.6666641235352 L91.6666641235352,99.6666641235352 L85.6666641235352,105.666664123535 L79.6666641235352,99.6666641235352 L85.6666641235352,93.6666641235352  z" stroke="#FF0000" fill="none" stroke-width="0.3333333" stroke-opacity="1" />
  <text x="81.4519271850586" y="108.5" dx="0" dy="0" font-family="Tahoma" font-size="1.39999991059304pt" fill="#000000" style="text-anchor:start">Activity</text>
  <path d="M47.6666603088379,79.6666564941406 C47.6666603088379,82.9803695678711 44.9803695678711,85.6666564941406 41.6666641235352,85.6666564941406 C38.352954864502,85.6666641235352 35.6666641235352,82.9803695678711 35.6666641235352,79.6666641235352 C35.6666641235352,76.3529510498047 38.3529510498047,73.6666641235352 41.6666603088379,73.6666641235352 C44.9803657531738,73.6666564941406 47.6666603088379,76.3529510498047 47.6666603088379,79.6666564941406 " stroke="none" fill="#FFFFFF" fill-rule="nonzero" stroke-width="0" fill-opacity="1" />
  <text x="39.2634544372559" y="80.4459609985352" dx="0" dy="0" font-family="Tahoma" font-size="1.39999991059304pt" fill="#000000" style="text-anchor:start">T31</text>
  <path d="M47.6666603088379,79.6666564941406 C47.6666603088379,82.9803695678711 44.9803695678711,85.6666564941406 41.6666641235352,85.6666564941406 C38.352954864502,85.6666641235352 35.6666641235352,82.9803695678711 35.6666641235352,79.6666641235352 C35.6666641235352,76.3529510498047 38.3529510498047,73.6666641235352 41.6666603088379,73.6666641235352 C44.9803657531738,73.6666564941406 47.6666603088379,76.3529510498047 47.6666603088379,79.6666564941406 " stroke="#000000" fill="none" stroke-width="0.3333333" stroke-opacity="1" />
  <path d="M41.6666641235352,73.6666641235352 L47.6666641235352,79.6666641235352 L41.6666641235352,85.6666641235352 L35.6666641235352,79.6666641235352 L41.6666641235352,73.6666641235352  z" stroke="none" fill="none" fill-rule="nonzero" stroke-width="0" fill-opacity="0" />
  <path d="M41.6666641235352,73.6666641235352 L47.6666641235352,79.6666641235352 L41.6666641235352,85.6666641235352 L35.6666641235352,79.6666641235352 L41.6666641235352,73.6666641235352  z" stroke="#FF0000" fill="none" stroke-width="0.3333333" stroke-opacity="1" />
  <text x="30.9936790466309" y="88.5" dx="0" dy="0" font-family="Tahoma" font-size="1.39999991059304pt" fill="#000000" style="text-anchor:start">Partner Adjustment</text>
  <path d="M35.6666641235352,79.6666641235352 L25.6666660308838,79.6666641235352 " stroke="#000000" fill="none" stroke-width="0.3333333" stroke-opacity="1" />
  <path d="M25.6666622161865,78.4645767211914 L26.8687438964844,79.6666564941406 L25.6666641235352,80.8687362670898 L24.4645824432373,79.6666564941406  z" stroke="none" fill="#FF0000" fill-rule="evenodd" stroke-width="0" fill-opacity="1" />
  <path d="M25.6666622161865,78.4645767211914 L26.8687438964844,79.6666564941406 L25.6666641235352,80.8687362670898 L24.4645824432373,79.6666564941406  z" stroke="#000000" fill="none" stroke-width="0.3333333" stroke-opacity="1" />
  <path d="M115.666656494141,19.6666660308838 C115.666656494141,22.9803733825684 112.980369567871,25.6666641235352 109.666664123535,25.6666641235352 C106.352951049805,25.6666660308838 103.666664123535,22.9803733825684 103.666656494141,19.6666679382324 C103.666656494141,16.3529586791992 106.352951049805,13.6666669845581 109.666656494141,13.6666669845581 C112.980361938477,13.6666650772095 115.666656494141,16.3529529571533 115.666656494141,19.6666603088379 " stroke="none" fill="#FFFFFF" fill-rule="nonzero" stroke-width="0" fill-opacity="1" />
  <text x="107.263450622559" y="20.4459648132324" dx="0" dy="0" font-family="Tahoma" font-size="1.39999991059304pt" fill="#000000" style="text-anchor:start">T11</text>
  <path d="M115.666656494141,19.6666660308838 C115.666656494141,22.9803733825684 112.980369567871,25.6666641235352 109.666664123535,25.6666641235352 C106.352951049805,25.6666660308838 103.666664123535,22.9803733825684 103.666656494141,19.6666679382324 C103.666656494141,16.3529586791992 106.352951049805,13.6666669845581 109.666656494141,13.6666669845581 C112.980361938477,13.6666650772095 115.666656494141,16.3529529571533 115.666656494141,19.6666603088379 " stroke="#000000" fill="none" stroke-width="0.3333333" stroke-opacity="1" />
  <path d="M109.666664123535,13.6666669845581 L115.666664123535,19.6666660308838 L109.666664123535,25.6666660308838 L103.666664123535,19.6666660308838 L109.666664123535,13.6666669845581  z" stroke="none" fill="none" fill-rule="nonzero" stroke-width="0" fill-opacity="0" />
  <path d="M109.666664123535,13.6666669845581 L115.666664123535,19.6666660308838 L109.666664123535,25.6666660308838 L103.666664123535,19.6666660308838 L109.666664123535,13.6666669845581  z" stroke="#FF0000" fill="none" stroke-width="0.3333333" stroke-opacity="1" />
  <text x="104.591163635254" y="28.5" dx="0" dy="0" font-family="Tahoma" font-size="1.39999991059304pt" fill="#000000" style="text-anchor:start">Infection</text>
  <path d="M103.666664123535,19.6666660308838 L93.6666641235352,19.6666660308838 " stroke="#000000" fill="none" stroke-width="0.3333333" stroke-opacity="1" />
  <path d="M93.6666641235352,18.4645824432373 L94.8687438964844,19.6666622161865 L93.6666564941406,20.8687438964844 L92.4645767211914,19.6666641235352  z" stroke="none" fill="#FF0000" fill-rule="evenodd" stroke-width="0" fill-opacity="1" />
  <path d="M93.6666641235352,18.4645824432373 L94.8687438964844,19.6666622161865 L93.6666564941406,20.8687438964844 L92.4645767211914,19.6666641235352  z" stroke="#000000" fill="none" stroke-width="0.3333333" stroke-opacity="1" />
  <path d="M117.666664123535,89.6666641235352 L137.666656494141,89.6666641235352 L137.666656494141,149.666656494141 L117.666664123535,149.666656494141 L117.666664123535,89.6666641235352  z" stroke="none" fill="none" fill-rule="nonzero" stroke-width="0" fill-opacity="0" />
  <path d="M117.666664123535,89.6666641235352 L137.666656494141,89.6666641235352 L137.666656494141,149.666656494141 L117.666664123535,149.666656494141 L117.666664123535,89.6666641235352  z" stroke="#BEBEBE" fill="none" stroke-width="1" stroke-opacity="1" />
  <path d="M119.666664123535,88.1126251220703 L134.361755371094,88.1126251220703 L134.361755371094,91.2206954956055 L119.666664123535,91.2206954956055 L119.666664123535,88.1126251220703  z" stroke="none" fill="#FFFFFF" fill-rule="nonzero" stroke-width="0" fill-opacity="1" />
  <text x="120.666664123535" y="90.4459609985352" dx="0" dy="0" font-family="Tahoma" font-size="1.39999991059304pt" fill="#000000" style="text-anchor:start">O05 Health</text>
  <path d="M119.666664123535,88.1126251220703 L134.361755371094,88.1126251220703 L134.361755371094,91.2206954956055 L119.666664123535,91.2206954956055 L119.666664123535,88.1126251220703  z" stroke="#FFFFFF" fill="none" stroke-width="0.3333333" stroke-opacity="1" />
  <path d="M119.666664123535,131.666656494141 L135.666656494141,131.666656494141 L135.666656494141,147.666656494141 L119.666664123535,147.666656494141  z" stroke="none" fill="#FFFFFF" fill-rule="evenodd" stroke-width="0" fill-opacity="1" />
  <path d="M119.666664123535,131.666656494141 L135.666656494141,131.666656494141 " stroke="#000000" fill="none" stroke-width="0.3333333" stroke-opacity="1" />
  <path d="M119.666664123535,131.666656494141 L135.666656494141,131.666656494141 L135.666656494141,147.666656494141 L119.666664123535,147.666656494141  z" stroke="#000000" fill="none" stroke-width="0.3333333" stroke-opacity="1" />
  <text x="125.244651794434" y="135.44596862793" dx="0" dy="0" font-family="Tahoma" font-size="1.39999991059304pt" fill="#000000" style="text-anchor:start">A51</text>
  <text x="123.412620544434" y="143.279296875" dx="0" dy="0" font-family="Tahoma" font-size="1.39999991059304pt" fill="#000000" style="text-anchor:start">Treater</text>
  <path d="M115.666656494141,139.666641235352 C115.666656494141,142.980361938477 112.980369567871,145.666641235352 109.666664123535,145.666641235352 C106.352951049805,145.666656494141 103.666664123535,142.980361938477 103.666656494141,139.666656494141 C103.666656494141,136.352935791016 106.352951049805,133.666656494141 109.666656494141,133.666656494141 C112.980361938477,133.666656494141 115.666656494141,136.352935791016 115.666656494141,139.666641235352 " stroke="none" fill="#FFFFFF" fill-rule="nonzero" stroke-width="0" fill-opacity="1" />
  <text x="107.263450622559" y="140.44596862793" dx="0" dy="0" font-family="Tahoma" font-size="1.39999991059304pt" fill="#000000" style="text-anchor:start">T51</text>
  <path d="M115.666656494141,139.666641235352 C115.666656494141,142.980361938477 112.980369567871,145.666641235352 109.666664123535,145.666641235352 C106.352951049805,145.666656494141 103.666664123535,142.980361938477 103.666656494141,139.666656494141 C103.666656494141,136.352935791016 106.352951049805,133.666656494141 109.666656494141,133.666656494141 C112.980361938477,133.666656494141 115.666656494141,136.352935791016 115.666656494141,139.666641235352 " stroke="#000000" fill="none" stroke-width="0.3333333" stroke-opacity="1" />
  <path d="M109.666664123535,133.666656494141 L115.666664123535,139.666656494141 L109.666664123535,145.666656494141 L103.666664123535,139.666656494141 L109.666664123535,133.666656494141  z" stroke="none" fill="none" fill-rule="nonzero" stroke-width="0" fill-opacity="0" />
  <path d="M109.666664123535,133.666656494141 L115.666664123535,139.666656494141 L109.666664123535,145.666656494141 L103.666664123535,139.666656494141 L109.666664123535,133.666656494141  z" stroke="#FF0000" fill="none" stroke-width="0.3333333" stroke-opacity="1" />
  <text x="103.764015197754" y="148.5" dx="0" dy="0" font-family="Tahoma" font-size="1.39999991059304pt" fill="#000000" style="text-anchor:start">Treatment</text>
  <path d="M115.666664123535,139.666656494141 L119.666664123535,139.666656494141 " stroke="#000000" fill="none" stroke-width="0.3333333" stroke-opacity="1" />
  <path d="M119.666656494141,138.464569091797 L120.86873626709,139.666641235352 L119.666656494141,140.868713378906 L118.464576721191,139.666641235352  z" stroke="none" fill="#FF0000" fill-rule="evenodd" stroke-width="0" fill-opacity="1" />
  <path d="M119.666656494141,138.464569091797 L120.86873626709,139.666641235352 L119.666656494141,140.868713378906 L118.464576721191,139.666641235352  z" stroke="#000000" fill="none" stroke-width="0.3333333" stroke-opacity="1" />
  <path d="M9.66666698455811,91.6666641235352 L25.6666660308838,91.6666641235352 L25.6666660308838,107.666664123535 L9.66666698455811,107.666664123535  z" stroke="none" fill="#FFFFFF" fill-rule="evenodd" stroke-width="0" fill-opacity="1" />
  <path d="M9.66666698455811,91.6666641235352 L25.6666660308838,91.6666641235352 " stroke="#000000" fill="none" stroke-width="0.3333333" stroke-opacity="1" />
  <path d="M9.66666698455811,91.6666641235352 L25.6666660308838,91.6666641235352 L25.6666660308838,107.666664123535 L9.66666698455811,107.666664123535  z" stroke="#000000" fill="none" stroke-width="0.3333333" stroke-opacity="1" />
  <text x="15.2446565628052" y="95.4459609985352" dx="0" dy="0" font-family="Tahoma" font-size="1.39999991059304pt" fill="#000000" style="text-anchor:start">A32</text>
  <text x="12.5028772354126" y="101.87109375" dx="0" dy="0" font-family="Tahoma" font-size="1.39999991059304pt" fill="#000000" style="text-anchor:start">Guardian </text>
  <text x="12.8811311721802" y="104.20442199707" dx="0" dy="0" font-family="Tahoma" font-size="1.39999991059304pt" fill="#000000" style="text-anchor:start">Adjuster</text>
  <path d="M47.6666603088379,99.6666564941406 C47.6666603088379,102.980369567871 44.9803695678711,105.666656494141 41.6666641235352,105.666656494141 C38.352954864502,105.666664123535 35.6666641235352,102.980369567871 35.6666641235352,99.6666641235352 C35.6666641235352,96.3529510498047 38.3529510498047,93.6666641235352 41.6666603088379,93.6666641235352 C44.9803657531738,93.6666564941406 47.6666603088379,96.3529510498047 47.6666603088379,99.6666564941406 " stroke="none" fill="#FFFFFF" fill-rule="nonzero" stroke-width="0" fill-opacity="1" />
  <text x="39.2634544372559" y="100.445960998535" dx="0" dy="0" font-family="Tahoma" font-size="1.39999991059304pt" fill="#000000" style="text-anchor:start">T32</text>
  <path d="M47.6666603088379,99.6666564941406 C47.6666603088379,102.980369567871 44.9803695678711,105.666656494141 41.6666641235352,105.666656494141 C38.352954864502,105.666664123535 35.6666641235352,102.980369567871 35.6666641235352,99.6666641235352 C35.6666641235352,96.3529510498047 38.3529510498047,93.6666641235352 41.6666603088379,93.6666641235352 C44.9803657531738,93.6666564941406 47.6666603088379,96.3529510498047 47.6666603088379,99.6666564941406 " stroke="#000000" fill="none" stroke-width="0.3333333" stroke-opacity="1" />
  <path d="M41.6666641235352,93.6666641235352 L47.6666641235352,99.6666641235352 L41.6666641235352,105.666664123535 L35.6666641235352,99.6666641235352 L41.6666641235352,93.6666641235352  z" stroke="none" fill="none" fill-rule="nonzero" stroke-width="0" fill-opacity="0" />
  <path d="M41.6666641235352,93.6666641235352 L47.6666641235352,99.6666641235352 L41.6666641235352,105.666664123535 L35.6666641235352,99.6666641235352 L41.6666641235352,93.6666641235352  z" stroke="#FF0000" fill="none" stroke-width="0.3333333" stroke-opacity="1" />
  <text x="30.0822257995605" y="108.5" dx="0" dy="0" font-family="Tahoma" font-size="1.39999991059304pt" fill="#000000" style="text-anchor:start">Guardian Adjustment</text>
  <path d="M35.6666641235352,99.6666641235352 L25.6666660308838,99.6666641235352 " stroke="#000000" fill="none" stroke-width="0.3333333" stroke-opacity="1" />
  <path d="M25.6666564941406,98.4645767211914 L26.8687362670898,99.6666564941406 L25.6666584014893,100.86873626709 L24.4645767211914,99.6666564941406  z" stroke="none" fill="#FF0000" fill-rule="evenodd" stroke-width="0" fill-opacity="1" />
  <path d="M25.6666564941406,98.4645767211914 L26.8687362670898,99.6666564941406 L25.6666584014893,100.86873626709 L24.4645767211914,99.6666564941406  z" stroke="#000000" fill="none" stroke-width="0.3333333" stroke-opacity="1" />
  <path d="M9.66666698455811,111.666664123535 L25.6666660308838,111.666664123535 L25.6666660308838,127.666664123535 L9.66666698455811,127.666664123535  z" stroke="none" fill="#FFFFFF" fill-rule="evenodd" stroke-width="0" fill-opacity="1" />
  <path d="M9.66666698455811,111.666664123535 L25.6666660308838,111.666664123535 " stroke="#000000" fill="none" stroke-width="0.3333333" stroke-opacity="1" />
  <path d="M9.66666698455811,111.666664123535 L25.6666660308838,111.666664123535 L25.6666660308838,127.666664123535 L9.66666698455811,127.666664123535  z" stroke="#000000" fill="none" stroke-width="0.3333333" stroke-opacity="1" />
  <text x="15.2446565628052" y="115.445960998535" dx="0" dy="0" font-family="Tahoma" font-size="1.39999991059304pt" fill="#000000" style="text-anchor:start">A33</text>
  <text x="14.1725540161133" y="121.87109375" dx="0" dy="0" font-family="Tahoma" font-size="1.39999991059304pt" fill="#000000" style="text-anchor:start">Home </text>
  <text x="12.8811311721802" y="124.20442199707" dx="0" dy="0" font-family="Tahoma" font-size="1.39999991059304pt" fill="#000000" style="text-anchor:start">Adjuster</text>
  <path d="M47.6666603088379,119.666656494141 C47.6666603088379,122.980369567871 44.9803695678711,125.666656494141 41.6666641235352,125.666656494141 C38.352954864502,125.666664123535 35.6666641235352,122.980369567871 35.6666641235352,119.666664123535 C35.6666641235352,116.352951049805 38.3529510498047,113.666664123535 41.6666603088379,113.666664123535 C44.9803657531738,113.666656494141 47.6666603088379,116.352951049805 47.6666603088379,119.666656494141 " stroke="none" fill="#FFFFFF" fill-rule="nonzero" stroke-width="0" fill-opacity="1" />
  <text x="39.2634544372559" y="120.445960998535" dx="0" dy="0" font-family="Tahoma" font-size="1.39999991059304pt" fill="#000000" style="text-anchor:start">T33</text>
  <path d="M47.6666603088379,119.666656494141 C47.6666603088379,122.980369567871 44.9803695678711,125.666656494141 41.6666641235352,125.666656494141 C38.352954864502,125.666664123535 35.6666641235352,122.980369567871 35.6666641235352,119.666664123535 C35.6666641235352,116.352951049805 38.3529510498047,113.666664123535 41.6666603088379,113.666664123535 C44.9803657531738,113.666656494141 47.6666603088379,116.352951049805 47.6666603088379,119.666656494141 " stroke="#000000" fill="none" stroke-width="0.3333333" stroke-opacity="1" />
  <path d="M41.6666641235352,113.666664123535 L47.6666641235352,119.666664123535 L41.6666641235352,125.666664123535 L35.6666641235352,119.666664123535 L41.6666641235352,113.666664123535  z" stroke="none" fill="none" fill-rule="nonzero" stroke-width="0" fill-opacity="0" />
  <path d="M41.6666641235352,113.666664123535 L47.6666641235352,119.666664123535 L41.6666641235352,125.666664123535 L35.6666641235352,119.666664123535 L41.6666641235352,113.666664123535  z" stroke="#FF0000" fill="none" stroke-width="0.3333333" stroke-opacity="1" />
  <text x="31.7518920898438" y="128.5" dx="0" dy="0" font-family="Tahoma" font-size="1.39999991059304pt" fill="#000000" style="text-anchor:start">Home Adjustment</text>
  <path d="M35.6666641235352,119.666664123535 L25.6666660308838,119.666664123535 " stroke="#000000" fill="none" stroke-width="0.3333333" stroke-opacity="1" />
  <path d="M25.6666584014893,118.464576721191 L26.8687381744385,119.666656494141 L25.6666584014893,120.86873626709 L24.46457862854,119.666656494141  z" stroke="none" fill="#FF0000" fill-rule="evenodd" stroke-width="0" fill-opacity="1" />
  <path d="M25.6666584014893,118.464576721191 L26.8687381744385,119.666656494141 L25.6666584014893,120.86873626709 L24.46457862854,119.666656494141  z" stroke="#000000" fill="none" stroke-width="0.3333333" stroke-opacity="1" />
  <path d="M77.6666641235352,31.6666660308838 L93.6666641235352,31.6666660308838 L93.6666641235352,47.6666641235352 L77.6666641235352,47.6666641235352  z" stroke="none" fill="#FFFFFF" fill-rule="evenodd" stroke-width="0" fill-opacity="1" />
  <path d="M77.6666641235352,31.6666660308838 L93.6666641235352,31.6666660308838 " stroke="#000000" fill="none" stroke-width="0.3333333" stroke-opacity="1" />
  <path d="M77.6666641235352,31.6666660308838 L93.6666641235352,31.6666660308838 L93.6666641235352,47.6666641235352 L77.6666641235352,47.6666641235352  z" stroke="#000000" fill="none" stroke-width="0.3333333" stroke-opacity="1" />
  <text x="83.2446517944336" y="35.4459648132324" dx="0" dy="0" font-family="Tahoma" font-size="1.39999991059304pt" fill="#000000" style="text-anchor:start">A13</text>
  <text x="79.1043548583984" y="43.279296875" dx="0" dy="0" font-family="Tahoma" font-size="1.39999991059304pt" fill="#000000" style="text-anchor:start">Opinionator</text>
  <path d="M115.666656494141,39.6666603088379 C115.666656494141,42.9803695678711 112.980369567871,45.6666603088379 109.666664123535,45.6666603088379 C106.352951049805,45.6666641235352 103.666664123535,42.9803695678711 103.666656494141,39.6666641235352 C103.666656494141,36.3529586791992 106.352951049805,33.6666641235352 109.666656494141,33.6666641235352 C112.980361938477,33.6666641235352 115.666656494141,36.3529510498047 115.666656494141,39.6666564941406 " stroke="none" fill="#FFFFFF" fill-rule="nonzero" stroke-width="0" fill-opacity="1" />
  <text x="107.263450622559" y="40.4459648132324" dx="0" dy="0" font-family="Tahoma" font-size="1.39999991059304pt" fill="#000000" style="text-anchor:start">T13</text>
  <path d="M115.666656494141,39.6666603088379 C115.666656494141,42.9803695678711 112.980369567871,45.6666603088379 109.666664123535,45.6666603088379 C106.352951049805,45.6666641235352 103.666664123535,42.9803695678711 103.666656494141,39.6666641235352 C103.666656494141,36.3529586791992 106.352951049805,33.6666641235352 109.666656494141,33.6666641235352 C112.980361938477,33.6666641235352 115.666656494141,36.3529510498047 115.666656494141,39.6666564941406 " stroke="#000000" fill="none" stroke-width="0.3333333" stroke-opacity="1" />
  <path d="M109.666664123535,33.6666641235352 L115.666664123535,39.6666641235352 L109.666664123535,45.6666641235352 L103.666664123535,39.6666641235352 L109.666664123535,33.6666641235352  z" stroke="none" fill="none" fill-rule="nonzero" stroke-width="0" fill-opacity="0" />
  <path d="M109.666664123535,33.6666641235352 L115.666664123535,39.6666641235352 L109.666664123535,45.6666641235352 L103.666664123535,39.6666641235352 L109.666664123535,33.6666641235352  z" stroke="#FF0000" fill="none" stroke-width="0.3333333" stroke-opacity="1" />
  <text x="105.222358703613" y="48.5" dx="0" dy="0" font-family="Tahoma" font-size="1.39999991059304pt" fill="#000000" style="text-anchor:start">Opinion</text>
  <path d="M103.666664123535,39.6666641235352 L93.6666641235352,39.6666641235352 " stroke="#000000" fill="none" stroke-width="0.3333333" stroke-opacity="1" />
  <path d="M93.6666564941406,38.4645805358887 L94.8687362670898,39.6666603088379 L93.6666564941406,40.8687400817871 L92.4645767211914,39.6666603088379  z" stroke="none" fill="#FF0000" fill-rule="evenodd" stroke-width="0" fill-opacity="1" />
  <path d="M93.6666564941406,38.4645805358887 L94.8687362670898,39.6666603088379 L93.6666564941406,40.8687400817871 L92.4645767211914,39.6666603088379  z" stroke="#000000" fill="none" stroke-width="0.3333333" stroke-opacity="1" />
  <path d="M77.6666641235352,51.6666641235352 L93.6666641235352,51.6666641235352 L93.6666641235352,67.6666641235352 L77.6666641235352,67.6666641235352  z" stroke="none" fill="#FFFFFF" fill-rule="evenodd" stroke-width="0" fill-opacity="1" />
  <path d="M77.6666641235352,51.6666641235352 L93.6666641235352,51.6666641235352 " stroke="#000000" fill="none" stroke-width="0.3333333" stroke-opacity="1" />
  <path d="M77.6666641235352,51.6666641235352 L93.6666641235352,51.6666641235352 L93.6666641235352,67.6666641235352 L77.6666641235352,67.6666641235352  z" stroke="#000000" fill="none" stroke-width="0.3333333" stroke-opacity="1" />
  <text x="83.2446517944336" y="55.4459648132324" dx="0" dy="0" font-family="Tahoma" font-size="1.39999991059304pt" fill="#000000" style="text-anchor:start">A14</text>
  <text x="80.3063430786133" y="63.279296875" dx="0" dy="0" font-family="Tahoma" font-size="1.39999991059304pt" fill="#000000" style="text-anchor:start">Motivator</text>
  <path d="M115.666656494141,59.6666603088379 C115.666656494141,62.9803695678711 112.980369567871,65.6666564941406 109.666664123535,65.6666564941406 C106.352951049805,65.6666641235352 103.666664123535,62.9803695678711 103.666656494141,59.6666641235352 C103.666656494141,56.352954864502 106.352951049805,53.6666641235352 109.666656494141,53.6666641235352 C112.980361938477,53.6666603088379 115.666656494141,56.3529510498047 115.666656494141,59.6666564941406 " stroke="none" fill="#FFFFFF" fill-rule="nonzero" stroke-width="0" fill-opacity="1" />
  <text x="107.263450622559" y="60.4459648132324" dx="0" dy="0" font-family="Tahoma" font-size="1.39999991059304pt" fill="#000000" style="text-anchor:start">T14</text>
  <path d="M115.666656494141,59.6666603088379 C115.666656494141,62.9803695678711 112.980369567871,65.6666564941406 109.666664123535,65.6666564941406 C106.352951049805,65.6666641235352 103.666664123535,62.9803695678711 103.666656494141,59.6666641235352 C103.666656494141,56.352954864502 106.352951049805,53.6666641235352 109.666656494141,53.6666641235352 C112.980361938477,53.6666603088379 115.666656494141,56.3529510498047 115.666656494141,59.6666564941406 " stroke="#000000" fill="none" stroke-width="0.3333333" stroke-opacity="1" />
  <path d="M109.666664123535,53.6666641235352 L115.666664123535,59.6666641235352 L109.666664123535,65.6666641235352 L103.666664123535,59.6666641235352 L109.666664123535,53.6666641235352  z" stroke="none" fill="none" fill-rule="nonzero" stroke-width="0" fill-opacity="0" />
  <path d="M109.666664123535,53.6666641235352 L115.666664123535,59.6666641235352 L109.666664123535,65.6666641235352 L103.666664123535,59.6666641235352 L109.666664123535,53.6666641235352  z" stroke="#FF0000" fill="none" stroke-width="0.3333333" stroke-opacity="1" />
  <text x="103.794784545898" y="68.5" dx="0" dy="0" font-family="Tahoma" font-size="1.39999991059304pt" fill="#000000" style="text-anchor:start">Motivation</text>
  <path d="M103.666664123535,59.6666641235352 L93.6666641235352,59.6666641235352 " stroke="#000000" fill="none" stroke-width="0.3333333" stroke-opacity="1" />
  <path d="M93.6666564941406,58.4645805358887 L94.8687362670898,59.6666603088379 L93.6666564941406,60.8687400817871 L92.4645767211914,59.6666603088379  z" stroke="none" fill="#FF0000" fill-rule="evenodd" stroke-width="0" fill-opacity="1" />
  <path d="M93.6666564941406,58.4645805358887 L94.8687362670898,59.6666603088379 L93.6666564941406,60.8687400817871 L92.4645767211914,59.6666603088379  z" stroke="#000000" fill="none" stroke-width="0.3333333" stroke-opacity="1" />
  <path d="M117.666664123535,49.6666641235352 L137.666656494141,49.6666641235352 L137.666656494141,85.6666641235352 L117.666664123535,85.6666641235352 L117.666664123535,49.6666641235352  z" stroke="none" fill="none" fill-rule="nonzero" stroke-width="0" fill-opacity="0" />
  <path d="M117.666664123535,49.6666641235352 L137.666656494141,49.6666641235352 L137.666656494141,85.6666641235352 L117.666664123535,85.6666641235352 L117.666664123535,49.6666641235352  z" stroke="#BEBEBE" fill="none" stroke-width="1" stroke-opacity="1" />
  <path d="M119.666664123535,48.1126289367676 L134.711517333984,48.1126289367676 L134.711517333984,51.220703125 L119.666664123535,51.220703125 L119.666664123535,48.1126289367676  z" stroke="none" fill="#FFFFFF" fill-rule="nonzero" stroke-width="0" fill-opacity="1" />
  <text x="120.666664123535" y="50.4459648132324" dx="0" dy="0" font-family="Tahoma" font-size="1.39999991059304pt" fill="#000000" style="text-anchor:start">O04 Inform</text>
  <path d="M119.666664123535,48.1126289367676 L134.711517333984,48.1126289367676 L134.711517333984,51.220703125 L119.666664123535,51.220703125 L119.666664123535,48.1126289367676  z" stroke="#FFFFFF" fill="none" stroke-width="0.3333333" stroke-opacity="1" />
  <path d="M119.666664123535,51.6666641235352 L135.666656494141,51.6666641235352 L135.666656494141,67.6666641235352 L119.666664123535,67.6666641235352  z" stroke="none" fill="#FFFFFF" fill-rule="evenodd" stroke-width="0" fill-opacity="1" />
  <path d="M119.666664123535,51.6666641235352 L135.666656494141,51.6666641235352 " stroke="#000000" fill="none" stroke-width="0.3333333" stroke-opacity="1" />
  <path d="M119.666664123535,51.6666641235352 L135.666656494141,51.6666641235352 L135.666656494141,67.6666641235352 L119.666664123535,67.6666641235352  z" stroke="#000000" fill="none" stroke-width="0.3333333" stroke-opacity="1" />
  <text x="125.244651794434" y="55.4459648132324" dx="0" dy="0" font-family="Tahoma" font-size="1.39999991059304pt" fill="#000000" style="text-anchor:start">A40</text>
  <text x="122.616806030273" y="63.279296875" dx="0" dy="0" font-family="Tahoma" font-size="1.39999991059304pt" fill="#000000" style="text-anchor:start">Informer</text>
  <path d="M133.666641235352,75.6666564941406 C133.666641235352,78.9803695678711 130.980361938477,81.6666564941406 127.666664123535,81.6666564941406 C124.352951049805,81.6666564941406 121.666664123535,78.9803695678711 121.666656494141,75.6666641235352 C121.666656494141,72.3529586791992 124.352951049805,69.6666641235352 127.666656494141,69.6666641235352 C130.980361938477,69.6666641235352 133.666641235352,72.3529510498047 133.666641235352,75.6666564941406 " stroke="none" fill="#FFFFFF" fill-rule="nonzero" stroke-width="0" fill-opacity="1" />
  <text x="125.263450622559" y="76.4459686279297" dx="0" dy="0" font-family="Tahoma" font-size="1.39999991059304pt" fill="#000000" style="text-anchor:start">T40</text>
  <path d="M133.666641235352,75.6666564941406 C133.666641235352,78.9803695678711 130.980361938477,81.6666564941406 127.666664123535,81.6666564941406 C124.352951049805,81.6666564941406 121.666664123535,78.9803695678711 121.666656494141,75.6666641235352 C121.666656494141,72.3529586791992 124.352951049805,69.6666641235352 127.666656494141,69.6666641235352 C130.980361938477,69.6666641235352 133.666641235352,72.3529510498047 133.666641235352,75.6666564941406 " stroke="#000000" fill="none" stroke-width="0.3333333" stroke-opacity="1" />
  <path d="M127.666664123535,69.6666717529297 L133.666656494141,75.6666641235352 L127.666664123535,81.6666641235352 L121.666664123535,75.6666641235352 L127.666664123535,69.6666717529297  z" stroke="none" fill="none" fill-rule="nonzero" stroke-width="0" fill-opacity="0" />
  <path d="M127.666664123535,69.6666717529297 L133.666656494141,75.6666641235352 L127.666664123535,81.6666641235352 L121.666664123535,75.6666641235352 L127.666664123535,69.6666717529297  z" stroke="#FF0000" fill="none" stroke-width="0.3333333" stroke-opacity="1" />
  <text x="121.052513122559" y="84.4999923706055" dx="0" dy="0" font-family="Tahoma" font-size="1.39999991059304pt" fill="#000000" style="text-anchor:start">Information</text>
  <path d="M7.66666698455811,9.66666698455811 L27.6666660308838,9.66666698455811 L27.6666660308838,29.6666660308838 L7.66666698455811,29.6666660308838 L7.66666698455811,9.66666698455811  z" stroke="none" fill="none" fill-rule="nonzero" stroke-width="0" fill-opacity="0" />
  <path d="M7.66666698455811,9.66666698455811 L27.6666660308838,9.66666698455811 L27.6666660308838,29.6666660308838 L7.66666698455811,29.6666660308838 L7.66666698455811,9.66666698455811  z" stroke="#BEBEBE" fill="none" stroke-width="1" stroke-opacity="1" />
  <path d="M8.61697196960449,8.11263084411621 L26.7163600921631,8.11263084411621 L26.7163600921631,11.220703125 L8.61697196960449,11.220703125 L8.61697196960449,8.11263084411621  z" stroke="none" fill="#FFFFFF" fill-rule="nonzero" stroke-width="0" fill-opacity="1" />
  <text x="9.61697196960449" y="10.4459638595581" dx="0" dy="0" font-family="Tahoma" font-size="1.39999991059304pt" fill="#000000" style="text-anchor:start">O00 Transport</text>
  <path d="M8.61697196960449,8.11263084411621 L26.7163600921631,8.11263084411621 L26.7163600921631,11.220703125 L8.61697196960449,11.220703125 L8.61697196960449,8.11263084411621  z" stroke="#FFFFFF" fill="none" stroke-width="0.3333333" stroke-opacity="1" />
  <path d="M9.66666698455811,11.6666669845581 L25.6666660308838,11.6666669845581 L25.6666660308838,27.6666660308838 L9.66666698455811,27.6666660308838  z" stroke="none" fill="#FFFFFF" fill-rule="evenodd" stroke-width="0" fill-opacity="1" />
  <path d="M9.66666698455811,11.6666669845581 L25.6666660308838,11.6666669845581 " stroke="#000000" fill="none" stroke-width="0.3333333" stroke-opacity="1" />
  <path d="M9.66666698455811,11.6666669845581 L25.6666660308838,11.6666669845581 L25.6666660308838,27.6666660308838 L9.66666698455811,27.6666660308838  z" stroke="#000000" fill="none" stroke-width="0.3333333" stroke-opacity="1" />
  <text x="15.2446565628052" y="15.4459638595581" dx="0" dy="0" font-family="Tahoma" font-size="1.39999991059304pt" fill="#000000" style="text-anchor:start">A00</text>
  <text x="11.0895462036133" y="23.279296875" dx="0" dy="0" font-family="Tahoma" font-size="1.39999991059304pt" fill="#000000" style="text-anchor:start">Transporter</text>
  <path d="M23.6666641235352,37.6666641235352 C23.6666641235352,40.9803695678711 20.9803733825684,43.6666603088379 17.6666679382324,43.6666603088379 C14.3529586791992,43.6666641235352 11.6666669845581,40.9803695678711 11.6666660308838,37.6666641235352 C11.6666650772095,34.3529586791992 14.3529558181763,31.6666660308838 17.6666622161865,31.6666660308838 C20.9803695678711,31.6666641235352 23.6666622161865,34.3529510498047 23.6666641235352,37.6666603088379 " stroke="none" fill="#FFFFFF" fill-rule="nonzero" stroke-width="0" fill-opacity="1" />
  <text x="15.2634553909302" y="38.4459648132324" dx="0" dy="0" font-family="Tahoma" font-size="1.39999991059304pt" fill="#000000" style="text-anchor:start">T00</text>
  <path d="M23.6666641235352,37.6666641235352 C23.6666641235352,40.9803695678711 20.9803733825684,43.6666603088379 17.6666679382324,43.6666603088379 C14.3529586791992,43.6666641235352 11.6666669845581,40.9803695678711 11.6666660308838,37.6666641235352 C11.6666650772095,34.3529586791992 14.3529558181763,31.6666660308838 17.6666622161865,31.6666660308838 C20.9803695678711,31.6666641235352 23.6666622161865,34.3529510498047 23.6666641235352,37.6666603088379 " stroke="#000000" fill="none" stroke-width="0.3333333" stroke-opacity="1" />
  <path d="M17.6666660308838,31.6666660308838 L23.6666660308838,37.6666641235352 L17.6666660308838,43.6666641235352 L11.6666669845581,37.6666641235352 L17.6666660308838,31.6666660308838  z" stroke="none" fill="none" fill-rule="nonzero" stroke-width="0" fill-opacity="0" />
  <path d="M17.6666660308838,31.6666660308838 L23.6666660308838,37.6666641235352 L17.6666660308838,43.6666641235352 L11.6666669845581,37.6666641235352 L17.6666660308838,31.6666660308838  z" stroke="#FF0000" fill="none" stroke-width="0.3333333" stroke-opacity="1" />
  <text x="9.52525234222412" y="46.5" dx="0" dy="0" font-family="Tahoma" font-size="1.39999991059304pt" fill="#000000" style="text-anchor:start">Transportation</text>
  <path d="M17.6666660308838,31.6666660308838 L17.6666660308838,27.6666660308838 " stroke="#000000" fill="none" stroke-width="0.3333333" stroke-opacity="1" />
  <path d="M17.6666660308838,26.4645824432373 L18.8687477111816,27.6666641235352 L17.6666660308838,28.868745803833 L16.4645843505859,27.6666641235352  z" stroke="none" fill="#FF0000" fill-rule="evenodd" stroke-width="0" fill-opacity="1" />
  <path d="M17.6666660308838,26.4645824432373 L18.8687477111816,27.6666641235352 L17.6666660308838,28.868745803833 L16.4645843505859,27.6666641235352  z" stroke="#000000" fill="none" stroke-width="0.3333333" stroke-opacity="1" />
  <path d="M57.6666641235352,11.6666669845581 L73.6666641235352,11.6666669845581 L73.6666641235352,27.6666660308838 L57.6666641235352,27.6666660308838  z" stroke="none" fill="#FFFFFF" fill-rule="evenodd" stroke-width="0" fill-opacity="1" />
  <path d="M57.6666641235352,11.6666669845581 L73.6666641235352,11.6666669845581 " stroke="#000000" fill="none" stroke-width="0.3333333" stroke-opacity="1" />
  <path d="M57.6666641235352,11.6666669845581 L73.6666641235352,11.6666669845581 L73.6666641235352,27.6666660308838 L57.6666641235352,27.6666660308838  z" stroke="#000000" fill="none" stroke-width="0.3333333" stroke-opacity="1" />
  <text x="63.2446556091309" y="15.4459638595581" dx="0" dy="0" font-family="Tahoma" font-size="1.39999991059304pt" fill="#000000" style="text-anchor:start">A10</text>
  <text x="62.4175071716309" y="23.279296875" dx="0" dy="0" font-family="Tahoma" font-size="1.39999991059304pt" fill="#000000" style="text-anchor:start">Mixer</text>
  <path d="M47.6666603088379,19.6666660308838 C47.6666603088379,22.9803733825684 44.9803695678711,25.6666641235352 41.6666641235352,25.6666641235352 C38.352954864502,25.6666660308838 35.6666641235352,22.9803733825684 35.6666641235352,19.6666679382324 C35.6666641235352,16.3529586791992 38.3529510498047,13.6666669845581 41.6666603088379,13.6666669845581 C44.9803657531738,13.6666650772095 47.6666603088379,16.3529529571533 47.6666603088379,19.6666603088379 " stroke="none" fill="#FFFFFF" fill-rule="nonzero" stroke-width="0" fill-opacity="1" />
  <text x="39.2634544372559" y="20.4459648132324" dx="0" dy="0" font-family="Tahoma" font-size="1.39999991059304pt" fill="#000000" style="text-anchor:start">T10</text>
  <path d="M47.6666603088379,19.6666660308838 C47.6666603088379,22.9803733825684 44.9803695678711,25.6666641235352 41.6666641235352,25.6666641235352 C38.352954864502,25.6666660308838 35.6666641235352,22.9803733825684 35.6666641235352,19.6666679382324 C35.6666641235352,16.3529586791992 38.3529510498047,13.6666669845581 41.6666603088379,13.6666669845581 C44.9803657531738,13.6666650772095 47.6666603088379,16.3529529571533 47.6666603088379,19.6666603088379 " stroke="#000000" fill="none" stroke-width="0.3333333" stroke-opacity="1" />
  <path d="M41.6666641235352,13.6666669845581 L47.6666641235352,19.6666660308838 L41.6666641235352,25.6666660308838 L35.6666641235352,19.6666660308838 L41.6666641235352,13.6666669845581  z" stroke="none" fill="none" fill-rule="nonzero" stroke-width="0" fill-opacity="0" />
  <path d="M41.6666641235352,13.6666669845581 L47.6666641235352,19.6666660308838 L41.6666641235352,25.6666660308838 L35.6666641235352,19.6666660308838 L41.6666641235352,13.6666669845581  z" stroke="#FF0000" fill="none" stroke-width="0.3333333" stroke-opacity="1" />
  <text x="37.2445755004883" y="28.5" dx="0" dy="0" font-family="Tahoma" font-size="1.39999991059304pt" fill="#000000" style="text-anchor:start">Contact</text>
  <path d="M47.6666641235352,19.6666660308838 L57.6666641235352,19.6666660308838 " stroke="#000000" fill="none" stroke-width="0.3333333" stroke-opacity="1" />
  <path d="M57.6666603088379,18.4645824432373 L58.8687400817871,19.6666622161865 L57.6666603088379,20.8687438964844 L56.4645805358887,19.6666641235352  z" stroke="none" fill="#FF0000" fill-rule="evenodd" stroke-width="0" fill-opacity="1" />
  <path d="M57.6666603088379,18.4645824432373 L58.8687400817871,19.6666622161865 L57.6666603088379,20.8687438964844 L56.4645805358887,19.6666641235352  z" stroke="#000000" fill="none" stroke-width="0.3333333" stroke-opacity="1" />
  <path d="M131.666656494141,67.6666641235352 L131.666656494141,71.25537109375 " stroke="#000000" fill="none" stroke-width="0.3333333" stroke-opacity="1" />
  <path d="M131.666656494141,66.4645767211914 L132.868728637695,67.6666488647461 L131.666656494141,68.8687286376953 L130.464569091797,67.6666564941406  z" stroke="none" fill="#FF0000" fill-rule="evenodd" stroke-width="0" fill-opacity="1" />
  <path d="M131.666656494141,66.4645767211914 L132.868728637695,67.6666488647461 L131.666656494141,68.8687286376953 L130.464569091797,67.6666564941406  z" stroke="#000000" fill="none" stroke-width="0.3333333" stroke-opacity="1" />
  <path d="M9.66666698455811,51.6666641235352 L25.6666660308838,51.6666641235352 L25.6666660308838,67.6666641235352 L9.66666698455811,67.6666641235352  z" stroke="none" fill="#FFFFFF" fill-rule="evenodd" stroke-width="0" fill-opacity="1" />
  <path d="M9.66666698455811,51.6666641235352 L25.6666660308838,51.6666641235352 " stroke="#000000" fill="none" stroke-width="0.3333333" stroke-opacity="1" />
  <path d="M9.66666698455811,51.6666641235352 L25.6666660308838,51.6666641235352 L25.6666660308838,67.6666641235352 L9.66666698455811,67.6666641235352  z" stroke="#000000" fill="none" stroke-width="0.3333333" stroke-opacity="1" />
  <text x="15.2446565628052" y="55.4459648132324" dx="0" dy="0" font-family="Tahoma" font-size="1.39999991059304pt" fill="#000000" style="text-anchor:start">A30</text>
  <text x="9.84882354736328" y="63.279296875" dx="0" dy="0" font-family="Tahoma" font-size="1.39999991059304pt" fill="#000000" style="text-anchor:start">Vitae Adjuster</text>
  <path d="M47.6666603088379,59.6666603088379 C47.6666603088379,62.9803695678711 44.9803657531738,65.6666564941406 41.6666603088379,65.6666564941406 C38.3529510498047,65.6666641235352 35.6666603088379,62.9803695678711 35.6666603088379,59.6666641235352 C35.6666564941406,56.352954864502 38.3529472351074,53.6666641235352 41.6666564941406,53.6666641235352 C44.9803619384766,53.6666603088379 47.6666564941406,56.3529510498047 47.6666603088379,59.6666564941406 " stroke="none" fill="#FFFFFF" fill-rule="nonzero" stroke-width="0" fill-opacity="1" />
  <text x="39.2634544372559" y="60.4459648132324" dx="0" dy="0" font-family="Tahoma" font-size="1.39999991059304pt" fill="#000000" style="text-anchor:start">T30</text>
  <path d="M47.6666603088379,59.6666603088379 C47.6666603088379,62.9803695678711 44.9803657531738,65.6666564941406 41.6666603088379,65.6666564941406 C38.3529510498047,65.6666641235352 35.6666603088379,62.9803695678711 35.6666603088379,59.6666641235352 C35.6666564941406,56.352954864502 38.3529472351074,53.6666641235352 41.6666564941406,53.6666641235352 C44.9803619384766,53.6666603088379 47.6666564941406,56.3529510498047 47.6666603088379,59.6666564941406 " stroke="#000000" fill="none" stroke-width="0.3333333" stroke-opacity="1" />
  <path d="M41.6666641235352,53.6666641235352 L47.6666641235352,59.6666641235352 L41.6666641235352,65.6666641235352 L35.6666641235352,59.6666641235352 L41.6666641235352,53.6666641235352  z" stroke="none" fill="none" fill-rule="nonzero" stroke-width="0" fill-opacity="0" />
  <path d="M41.6666641235352,53.6666641235352 L47.6666641235352,59.6666641235352 L41.6666641235352,65.6666641235352 L35.6666641235352,59.6666641235352 L41.6666641235352,53.6666641235352  z" stroke="#FF0000" fill="none" stroke-width="0.3333333" stroke-opacity="1" />
  <text x="32.2002258300781" y="68.5" dx="0" dy="0" font-family="Tahoma" font-size="1.39999991059304pt" fill="#000000" style="text-anchor:start">Vitae Adjustment</text>
  <path d="M35.6666641235352,59.6666641235352 L25.6666660308838,59.6666641235352 " stroke="#000000" fill="none" stroke-width="0.3333333" stroke-opacity="1" />
  <path d="M25.6666603088379,58.4645805358887 L26.8687419891357,59.6666603088379 L25.6666622161865,60.8687400817871 L24.4645824432373,59.6666603088379  z" stroke="none" fill="#FF0000" fill-rule="evenodd" stroke-width="0" fill-opacity="1" />
  <path d="M25.6666603088379,58.4645805358887 L26.8687419891357,59.6666603088379 L25.6666622161865,60.8687400817871 L24.4645824432373,59.6666603088379  z" stroke="#000000" fill="none" stroke-width="0.3333333" stroke-opacity="1" />
  <path d="M119.666664123535,11.6666669845581 L135.666656494141,11.6666669845581 L135.666656494141,27.6666660308838 L119.666664123535,27.6666660308838  z" stroke="none" fill="#FFFFFF" fill-rule="evenodd" stroke-width="0" fill-opacity="1" />
  <path d="M119.666664123535,11.6666669845581 L135.666656494141,11.6666669845581 " stroke="#000000" fill="none" stroke-width="0.3333333" stroke-opacity="1" />
  <path d="M119.666664123535,11.6666669845581 L135.666656494141,11.6666669845581 L135.666656494141,27.6666660308838 L119.666664123535,27.6666660308838  z" stroke="#000000" fill="none" stroke-width="0.3333333" stroke-opacity="1" />
  <text x="125.244651794434" y="15.4459638595581" dx="0" dy="0" font-family="Tahoma" font-size="1.39999991059304pt" fill="#000000" style="text-anchor:start">A20</text>
  <text x="121.582870483398" y="23.279296875" dx="0" dy="0" font-family="Tahoma" font-size="1.39999991059304pt" fill="#000000" style="text-anchor:start">Contagium</text>
  <path d="M119.666664123535,59.6666641235352 L115.666664123535,59.6666641235352 " stroke="#000000" fill="none" stroke-width="0.3333333" stroke-opacity="1" />
  <path d="M119.666664123535,91.6666641235352 L135.666656494141,91.6666641235352 L135.666656494141,107.666664123535 L119.666664123535,107.666664123535  z" stroke="none" fill="#FFFFFF" fill-rule="evenodd" stroke-width="0" fill-opacity="1" />
  <path d="M119.666664123535,91.6666641235352 L135.666656494141,91.6666641235352 " stroke="#000000" fill="none" stroke-width="0.3333333" stroke-opacity="1" />
  <path d="M119.666664123535,91.6666641235352 L135.666656494141,91.6666641235352 L135.666656494141,107.666664123535 L119.666664123535,107.666664123535  z" stroke="#000000" fill="none" stroke-width="0.3333333" stroke-opacity="1" />
  <text x="125.244651794434" y="95.4459609985352" dx="0" dy="0" font-family="Tahoma" font-size="1.39999991059304pt" fill="#000000" style="text-anchor:start">A50</text>
  <text x="123.398384094238" y="103.279296875" dx="0" dy="0" font-family="Tahoma" font-size="1.39999991059304pt" fill="#000000" style="text-anchor:start">Advisor</text>
  <path d="M119.666664123535,99.6666641235352 L109.666664123535,99.6666641235352 " stroke="#000000" fill="none" stroke-width="0.3333333" stroke-opacity="1" />
  <path d="M109.666664123535,99.6666641235352 L109.666664123535,65.6666641235352 " stroke="#000000" fill="none" stroke-width="0.3333333" stroke-opacity="1" />
  <path d="M119.666664123535,19.6666660308838 L115.666664123535,19.6666660308838 " stroke="#000000" fill="none" stroke-width="0.3333333" stroke-opacity="1" />
  <path d="M93.6666641235352,43.6666641235352 L97.6666641235352,43.6666641235352 " stroke="#000000" fill="none" stroke-width="0.3333333" stroke-opacity="1" />
  <path d="M97.6666641235352,43.6666641235352 L97.6666641235352,51.6666641235352 " stroke="#000000" fill="none" stroke-width="0.3333333" stroke-opacity="1" />
  <path d="M97.6666641235352,51.6666641235352 L109.666664123535,51.6666641235352 " stroke="#000000" fill="none" stroke-width="0.3333333" stroke-opacity="1" />
  <path d="M109.666664123535,51.6666641235352 L109.666664123535,53.6666641235352 " stroke="#000000" fill="none" stroke-width="0.3333333" stroke-opacity="1" />
  <path d="M133.666641235352,119.666656494141 C133.666641235352,122.980369567871 130.980361938477,125.666656494141 127.666664123535,125.666656494141 C124.352951049805,125.666664123535 121.666664123535,122.980369567871 121.666656494141,119.666664123535 C121.666656494141,116.352951049805 124.352951049805,113.666664123535 127.666656494141,113.666664123535 C130.980361938477,113.666656494141 133.666641235352,116.352951049805 133.666641235352,119.666656494141 " stroke="none" fill="#FFFFFF" fill-rule="nonzero" stroke-width="0" fill-opacity="1" />
  <text x="125.263450622559" y="120.445960998535" dx="0" dy="0" font-family="Tahoma" font-size="1.39999991059304pt" fill="#000000" style="text-anchor:start">T50</text>
  <path d="M133.666641235352,119.666656494141 C133.666641235352,122.980369567871 130.980361938477,125.666656494141 127.666664123535,125.666656494141 C124.352951049805,125.666664123535 121.666664123535,122.980369567871 121.666656494141,119.666664123535 C121.666656494141,116.352951049805 124.352951049805,113.666664123535 127.666656494141,113.666664123535 C130.980361938477,113.666656494141 133.666641235352,116.352951049805 133.666641235352,119.666656494141 " stroke="#000000" fill="none" stroke-width="0.3333333" stroke-opacity="1" />
  <path d="M127.666664123535,113.666664123535 L133.666656494141,119.666664123535 L127.666664123535,125.666664123535 L121.666664123535,119.666664123535 L127.666664123535,113.666664123535  z" stroke="none" fill="none" fill-rule="nonzero" stroke-width="0" fill-opacity="0" />
  <path d="M127.666664123535,113.666664123535 L133.666656494141,119.666664123535 L127.666664123535,125.666664123535 L121.666664123535,119.666664123535 L127.666664123535,113.666664123535  z" stroke="#FF0000" fill="none" stroke-width="0.3333333" stroke-opacity="1" />
  <text x="123.833030700684" y="128.5" dx="0" dy="0" font-family="Tahoma" font-size="1.39999991059304pt" fill="#000000" style="text-anchor:start">Advice</text>
  <path d="M131.666656494141,107.666664123535 L131.666656494141,115.255363464355 " stroke="#000000" fill="none" stroke-width="0.3333333" stroke-opacity="1" />
  <path d="M131.666656494141,106.464576721191 L132.868713378906,107.666648864746 L131.666641235352,108.868728637695 L130.464569091797,107.666656494141  z" stroke="none" fill="#FF0000" fill-rule="evenodd" stroke-width="0" fill-opacity="1" />
  <path d="M131.666656494141,106.464576721191 L132.868713378906,107.666648864746 L131.666641235352,108.868728637695 L130.464569091797,107.666656494141  z" stroke="#000000" fill="none" stroke-width="0.3333333" stroke-opacity="1" />
  <path d="M133.666641235352,35.6666603088379 C133.666641235352,38.9803695678711 130.980361938477,41.6666603088379 127.666664123535,41.6666603088379 C124.352951049805,41.6666603088379 121.666664123535,38.9803695678711 121.666656494141,35.6666641235352 C121.666656494141,32.352954864502 124.352951049805,29.6666622161865 127.666656494141,29.6666622161865 C130.980361938477,29.6666603088379 133.666641235352,32.3529472351074 133.666641235352,35.6666564941406 " stroke="none" fill="#FFFFFF" fill-rule="nonzero" stroke-width="0" fill-opacity="1" />
  <text x="125.263450622559" y="36.4459648132324" dx="0" dy="0" font-family="Tahoma" font-size="1.39999991059304pt" fill="#000000" style="text-anchor:start">T20</text>
  <path d="M133.666641235352,35.6666603088379 C133.666641235352,38.9803695678711 130.980361938477,41.6666603088379 127.666664123535,41.6666603088379 C124.352951049805,41.6666603088379 121.666664123535,38.9803695678711 121.666656494141,35.6666641235352 C121.666656494141,32.352954864502 124.352951049805,29.6666622161865 127.666656494141,29.6666622161865 C130.980361938477,29.6666603088379 133.666641235352,32.3529472351074 133.666641235352,35.6666564941406 " stroke="#000000" fill="none" stroke-width="0.3333333" stroke-opacity="1" />
  <path d="M127.666664123535,29.6666641235352 L133.666656494141,35.6666641235352 L127.666664123535,41.6666641235352 L121.666664123535,35.6666641235352 L127.666664123535,29.6666641235352  z" stroke="none" fill="none" fill-rule="nonzero" stroke-width="0" fill-opacity="0" />
  <path d="M127.666664123535,29.6666641235352 L133.666656494141,35.6666641235352 L127.666664123535,41.6666641235352 L121.666664123535,35.6666641235352 L127.666664123535,29.6666641235352  z" stroke="#FF0000" fill="none" stroke-width="0.3333333" stroke-opacity="1" />
  <text x="121.940048217773" y="44.5" dx="0" dy="0" font-family="Tahoma" font-size="1.39999991059304pt" fill="#000000" style="text-anchor:start">Contagion</text>
  <path d="M131.666656494141,31.2553768157959 L131.666656494141,27.6666660308838 " stroke="#000000" fill="none" stroke-width="0.3333333" stroke-opacity="1" />
  <path d="M131.666656494141,26.4645824432373 L132.868728637695,27.6666564941406 L131.666656494141,28.8687362670898 L130.464569091797,27.6666641235352  z" stroke="none" fill="#FF0000" fill-rule="evenodd" stroke-width="0" fill-opacity="1" />
  <path d="M131.666656494141,26.4645824432373 L132.868728637695,27.6666564941406 L131.666656494141,28.8687362670898 L130.464569091797,27.6666641235352  z" stroke="#000000" fill="none" stroke-width="0.3333333" stroke-opacity="1" />
  <path d="M123.666664123535,27.6666660308838 L123.666664123535,31.2553768157959 " stroke="#000000" fill="none" stroke-width="0.3333333" stroke-opacity="1" />
  <path d="M123.666664123535,107.666664123535 L123.666664123535,115.255363464355 " stroke="#000000" fill="none" stroke-width="0.3333333" stroke-opacity="1" />
  <path d="M123.666664123535,67.6666641235352 L123.666664123535,71.25537109375 " stroke="#000000" fill="none" stroke-width="0.3333333" stroke-opacity="1" />
  <path d="M57.6666641235352,71.6666641235352 L93.6666641235352,71.6666641235352 L93.6666641235352,87.6666641235352 L57.6666641235352,87.6666641235352  z" stroke="none" fill="#FFFFFF" fill-rule="evenodd" stroke-width="0" fill-opacity="1" />
  <path d="M57.6666641235352,71.6666641235352 L93.6666641235352,71.6666641235352 " stroke="#000000" fill="none" stroke-width="0.3333333" stroke-opacity="1" />
  <path d="M57.6666641235352,71.6666641235352 L93.6666641235352,71.6666641235352 L93.6666641235352,87.6666641235352 L57.6666641235352,87.6666641235352  z" stroke="#000000" fill="none" stroke-width="0.3333333" stroke-opacity="1" />
  <text x="73.2446517944336" y="75.4459609985352" dx="0" dy="0" font-family="Tahoma" font-size="1.39999991059304pt" fill="#000000" style="text-anchor:start">A15</text>
  <text x="71.0810775756836" y="83.279296875" dx="0" dy="0" font-family="Tahoma" font-size="1.39999991059304pt" fill="#000000" style="text-anchor:start">Director</text>
  <path d="M71.6666564941406,59.6666603088379 C71.6666564941406,62.9803695678711 68.9803619384766,65.6666564941406 65.6666564941406,65.6666564941406 C62.3529510498047,65.6666641235352 59.6666603088379,62.9803695678711 59.6666603088379,59.6666641235352 C59.6666603088379,56.352954864502 62.3529472351074,53.6666641235352 65.6666564941406,53.6666641235352 C68.9803619384766,53.6666603088379 71.6666488647461,56.3529510498047 71.6666564941406,59.6666564941406 " stroke="none" fill="#FFFFFF" fill-rule="nonzero" stroke-width="0" fill-opacity="1" />
  <text x="63.2634544372559" y="60.4459648132324" dx="0" dy="0" font-family="Tahoma" font-size="1.39999991059304pt" fill="#000000" style="text-anchor:start">T15</text>
  <path d="M71.6666564941406,59.6666603088379 C71.6666564941406,62.9803695678711 68.9803619384766,65.6666564941406 65.6666564941406,65.6666564941406 C62.3529510498047,65.6666641235352 59.6666603088379,62.9803695678711 59.6666603088379,59.6666641235352 C59.6666603088379,56.352954864502 62.3529472351074,53.6666641235352 65.6666564941406,53.6666641235352 C68.9803619384766,53.6666603088379 71.6666488647461,56.3529510498047 71.6666564941406,59.6666564941406 " stroke="#000000" fill="none" stroke-width="0.3333333" stroke-opacity="1" />
  <path d="M65.6666641235352,53.6666641235352 L71.6666641235352,59.6666641235352 L65.6666641235352,65.6666641235352 L59.6666641235352,59.6666641235352 L65.6666641235352,53.6666641235352  z" stroke="none" fill="none" fill-rule="nonzero" stroke-width="0" fill-opacity="0" />
  <path d="M65.6666641235352,53.6666641235352 L71.6666641235352,59.6666641235352 L65.6666641235352,65.6666641235352 L59.6666641235352,59.6666641235352 L65.6666641235352,53.6666641235352  z" stroke="#FF0000" fill="none" stroke-width="0.3333333" stroke-opacity="1" />
  <text x="59.3424797058105" y="68.5" dx="0" dy="0" font-family="Tahoma" font-size="1.39999991059304pt" fill="#000000" style="text-anchor:start">Redirection</text>
  <path d="M77.6666641235352,111.666664123535 L93.6666641235352,111.666664123535 L93.6666641235352,127.666664123535 L77.6666641235352,127.666664123535  z" stroke="none" fill="#FFFFFF" fill-rule="evenodd" stroke-width="0" fill-opacity="1" />
  <path d="M77.6666641235352,111.666664123535 L93.6666641235352,111.666664123535 " stroke="#000000" fill="none" stroke-width="0.3333333" stroke-opacity="1" />
  <path d="M77.6666641235352,111.666664123535 L93.6666641235352,111.666664123535 L93.6666641235352,127.666664123535 L77.6666641235352,127.666664123535  z" stroke="#000000" fill="none" stroke-width="0.3333333" stroke-opacity="1" />
  <text x="83.2446517944336" y="115.445960998535" dx="0" dy="0" font-family="Tahoma" font-size="1.39999991059304pt" fill="#000000" style="text-anchor:start">A17</text>
  <text x="80.6093978881836" y="123.279296875" dx="0" dy="0" font-family="Tahoma" font-size="1.39999991059304pt" fill="#000000" style="text-anchor:start">Activator</text>
  <path d="M85.6666641235352,105.666664123535 L85.6666641235352,111.666664123535 " stroke="#000000" fill="none" stroke-width="0.3333333" stroke-opacity="1" />
  <path d="M85.6666564941406,110.464576721191 L86.8687362670898,111.666656494141 L85.6666564941406,112.86873626709 L84.4645767211914,111.666656494141  z" stroke="none" fill="#FF0000" fill-rule="evenodd" stroke-width="0" fill-opacity="1" />
  <path d="M85.6666564941406,110.464576721191 L86.8687362670898,111.666656494141 L85.6666564941406,112.86873626709 L84.4645767211914,111.666656494141  z" stroke="#000000" fill="none" stroke-width="0.3333333" stroke-opacity="1" />
  <path d="M57.6666641235352,111.666664123535 L73.6666641235352,111.666664123535 L73.6666641235352,127.666664123535 L57.6666641235352,127.666664123535  z" stroke="none" fill="#FFFFFF" fill-rule="evenodd" stroke-width="0" fill-opacity="1" />
  <path d="M57.6666641235352,111.666664123535 L73.6666641235352,111.666664123535 " stroke="#000000" fill="none" stroke-width="0.3333333" stroke-opacity="1" />
  <path d="M57.6666641235352,111.666664123535 L73.6666641235352,111.666664123535 L73.6666641235352,127.666664123535 L57.6666641235352,127.666664123535  z" stroke="#000000" fill="none" stroke-width="0.3333333" stroke-opacity="1" />
  <text x="63.2446556091309" y="115.445960998535" dx="0" dy="0" font-family="Tahoma" font-size="1.39999991059304pt" fill="#000000" style="text-anchor:start">A16</text>
  <text x="61.3049583435059" y="123.279296875" dx="0" dy="0" font-family="Tahoma" font-size="1.39999991059304pt" fill="#000000" style="text-anchor:start">Planner</text>
  <path d="M71.6666564941406,99.6666564941406 C71.6666564941406,102.980369567871 68.9803695678711,105.666656494141 65.6666641235352,105.666656494141 C62.352954864502,105.666664123535 59.6666641235352,102.980369567871 59.6666603088379,99.6666641235352 C59.6666603088379,96.3529510498047 62.3529510498047,93.6666641235352 65.6666564941406,93.6666641235352 C68.9803619384766,93.6666564941406 71.6666564941406,96.3529510498047 71.6666564941406,99.6666564941406 " stroke="none" fill="#FFFFFF" fill-rule="nonzero" stroke-width="0" fill-opacity="1" />
  <text x="63.2634544372559" y="100.445960998535" dx="0" dy="0" font-family="Tahoma" font-size="1.39999991059304pt" fill="#000000" style="text-anchor:start">T16</text>
  <path d="M71.6666564941406,99.6666564941406 C71.6666564941406,102.980369567871 68.9803695678711,105.666656494141 65.6666641235352,105.666656494141 C62.352954864502,105.666664123535 59.6666641235352,102.980369567871 59.6666603088379,99.6666641235352 C59.6666603088379,96.3529510498047 62.3529510498047,93.6666641235352 65.6666564941406,93.6666641235352 C68.9803619384766,93.6666564941406 71.6666564941406,96.3529510498047 71.6666564941406,99.6666564941406 " stroke="#000000" fill="none" stroke-width="0.3333333" stroke-opacity="1" />
  <path d="M65.6666641235352,93.6666641235352 L71.6666641235352,99.6666641235352 L65.6666641235352,105.666664123535 L59.6666641235352,99.6666641235352 L65.6666641235352,93.6666641235352  z" stroke="none" fill="none" fill-rule="nonzero" stroke-width="0" fill-opacity="0" />
  <path d="M65.6666641235352,93.6666641235352 L71.6666641235352,99.6666641235352 L65.6666641235352,105.666664123535 L59.6666641235352,99.6666641235352 L65.6666641235352,93.6666641235352  z" stroke="#FF0000" fill="none" stroke-width="0.3333333" stroke-opacity="1" />
  <text x="63.0401496887207" y="108.5" dx="0" dy="0" font-family="Tahoma" font-size="1.39999991059304pt" fill="#000000" style="text-anchor:start">Plan</text>
  <path d="M69.6666641235352,104.07795715332 L69.6666641235352,111.666664123535 " stroke="#000000" fill="none" stroke-width="0.3333333" stroke-opacity="1" />
  <path d="M69.6666564941406,110.464576721191 L70.8687362670898,111.666656494141 L69.6666564941406,112.86873626709 L68.4645767211914,111.666656494141  z" stroke="none" fill="#FF0000" fill-rule="evenodd" stroke-width="0" fill-opacity="1" />
  <path d="M69.6666564941406,110.464576721191 L70.8687362670898,111.666656494141 L69.6666564941406,112.86873626709 L68.4645767211914,111.666656494141  z" stroke="#000000" fill="none" stroke-width="0.3333333" stroke-opacity="1" />
  <path d="M69.6666641235352,71.6666641235352 L69.6666641235352,64.0779495239258 " stroke="#000000" fill="none" stroke-width="0.3333333" stroke-opacity="1" />
  <path d="M69.6666564941406,70.4645767211914 L70.8687362670898,71.6666564941406 L69.6666564941406,72.8687362670898 L68.4645767211914,71.6666564941406  z" stroke="none" fill="#FF0000" fill-rule="evenodd" stroke-width="0" fill-opacity="1" />
  <path d="M69.6666564941406,70.4645767211914 L70.8687362670898,71.6666564941406 L69.6666564941406,72.8687362670898 L68.4645767211914,71.6666564941406  z" stroke="#000000" fill="none" stroke-width="0.3333333" stroke-opacity="1" />
  <path d="M47.6666641235352,99.6666641235352 L49.6666641235352,99.6666641235352 " stroke="#000000" fill="none" stroke-width="0.3333333" stroke-opacity="1" />
  <path d="M49.6666641235352,99.6666641235352 L49.6666641235352,83.6666641235352 " stroke="#000000" fill="none" stroke-width="0.3333333" stroke-opacity="1" />
  <path d="M49.6666641235352,83.6666641235352 L57.6666641235352,83.6666641235352 " stroke="#000000" fill="none" stroke-width="0.3333333" stroke-opacity="1" />
  <path d="M47.6666641235352,79.6666641235352 L57.6666641235352,79.6666641235352 " stroke="#000000" fill="none" stroke-width="0.3333333" stroke-opacity="1" />
  <path d="M47.6666641235352,119.666664123535 L53.6666641235352,119.666664123535 " stroke="#000000" fill="none" stroke-width="0.3333333" stroke-opacity="1" />
  <path d="M53.6666641235352,119.666664123535 L53.6666641235352,91.6666641235352 " stroke="#000000" fill="none" stroke-width="0.3333333" stroke-opacity="1" />
  <path d="M53.6666641235352,91.6666641235352 L61.6666641235352,91.6666641235352 " stroke="#000000" fill="none" stroke-width="0.3333333" stroke-opacity="1" />
  <path d="M61.6666641235352,91.6666641235352 L61.6666641235352,87.6666641235352 " stroke="#000000" fill="none" stroke-width="0.3333333" stroke-opacity="1" />
  <path d="M69.6666641235352,127.666664123535 L69.6666641235352,139.666656494141 " stroke="#000000" fill="none" stroke-width="0.3333333" stroke-opacity="1" />
  <path d="M69.6666641235352,139.666656494141 L103.666664123535,139.666656494141 " stroke="#000000" fill="none" stroke-width="0.3333333" stroke-opacity="1" />
  <path d="M47.6666641235352,59.6666641235352 L49.6666641235352,59.6666641235352 " stroke="#000000" fill="none" stroke-width="0.3333333" stroke-opacity="1" />
  <path d="M49.6666641235352,59.6666641235352 L49.6666641235352,75.6666641235352 " stroke="#000000" fill="none" stroke-width="0.3333333" stroke-opacity="1" />
  <path d="M49.6666641235352,75.6666641235352 L57.6666641235352,75.6666641235352 " stroke="#000000" fill="none" stroke-width="0.3333333" stroke-opacity="1" />
  <path d="M131.666656494141,11.6666669845581 L131.666656494141,5.66666698455811 " stroke="#000000" fill="none" stroke-width="0.3333333" stroke-opacity="1" stroke-dasharray="1,0.3333333" />
  <path d="M131.666656494141,5.66666698455811 L5.66666698455811,5.66666698455811 " stroke="#000000" fill="none" stroke-width="0.3333333" stroke-opacity="1" stroke-dasharray="1,0.3333333" />
  <path d="M5.66666698455811,5.66666698455811 L5.66666698455811,33.6666641235352 " stroke="#000000" fill="none" stroke-width="0.3333333" stroke-opacity="1" stroke-dasharray="1,0.3333333" />
  <path d="M5.66666698455811,33.6666641235352 L13.2553768157959,33.6666641235352 " stroke="#000000" fill="none" stroke-width="0.3333333" stroke-opacity="1" stroke-dasharray="1,0.3333333" />
  <path d="M61.6666641235352,71.6666641235352 L61.6666641235352,64.0779495239258 " stroke="#000000" fill="none" stroke-width="0.3333333" stroke-opacity="1" />
  <path d="M77.6666641235352,59.6666641235352 L71.6666641235352,59.6666641235352 " stroke="#000000" fill="none" stroke-width="0.3333333" stroke-opacity="1" />
  <path d="M105.255363464355,43.6666641235352 L101.666664123535,43.6666641235352 " stroke="#000000" fill="none" stroke-width="0.3333333" stroke-opacity="1" />
  <path d="M101.666664123535,43.6666641235352 L101.666664123535,50.1666641235352 " stroke="#000000" fill="none" stroke-width="0.3333333" stroke-opacity="1" />
  <path d="M101.666656494141,50.1666641235352 C102.495086669922,50.1666603088379 103.166656494141,50.8382339477539 103.166656494141,51.6666603088379 C103.166656494141,51.6666603088379 103.166656494141,51.6666641235352 103.166656494141,51.6666641235352 " stroke="#000000" fill="none" stroke-width="0.3333333" stroke-opacity="1" />
  <path d="M103.166664123535,51.6666641235352 L103.166664123535,51.6666641235352 " stroke="#000000" fill="none" stroke-width="0.3333333" stroke-opacity="1" />
  <path d="M103.166656494141,51.6666603088379 C103.166656494141,52.4950904846191 102.495086669922,53.1666603088379 101.666664123535,53.1666603088379 " stroke="#000000" fill="none" stroke-width="0.3333333" stroke-opacity="1" />
  <path d="M101.666664123535,53.1666641235352 L101.666664123535,58.1666641235352 " stroke="#000000" fill="none" stroke-width="0.3333333" stroke-opacity="1" />
  <path d="M101.666656494141,58.1666641235352 C102.495086669922,58.1666603088379 103.166656494141,58.8382339477539 103.166656494141,59.6666603088379 C103.166656494141,59.6666603088379 103.166656494141,59.6666641235352 103.166656494141,59.6666641235352 " stroke="#000000" fill="none" stroke-width="0.3333333" stroke-opacity="1" />
  <path d="M103.166664123535,59.6666641235352 L103.166664123535,59.6666641235352 " stroke="#000000" fill="none" stroke-width="0.3333333" stroke-opacity="1" />
  <path d="M103.166656494141,59.6666603088379 C103.166656494141,60.4950904846191 102.495086669922,61.1666603088379 101.666664123535,61.1666603088379 " stroke="#000000" fill="none" stroke-width="0.3333333" stroke-opacity="1" />
  <path d="M101.666664123535,61.1666641235352 L101.666664123535,75.6666641235352 " stroke="#000000" fill="none" stroke-width="0.3333333" stroke-opacity="1" />
  <path d="M101.666664123535,75.6666641235352 L93.6666641235352,75.6666641235352 " stroke="#000000" fill="none" stroke-width="0.3333333" stroke-opacity="1" />
  <path d="M121.666664123535,75.6666641235352 L111.166664123535,75.6666641235352 " stroke="#000000" fill="none" stroke-width="0.3333333" stroke-opacity="1" />
  <path d="M111.166656494141,75.6666564941406 C111.166656494141,74.8382339477539 110.495086669922,74.1666564941406 109.666656494141,74.1666641235352 C109.666656494141,74.1666564941406 109.666656494141,74.1666641235352 109.666656494141,74.1666641235352 " stroke="#000000" fill="none" stroke-width="0.3333333" stroke-opacity="1" />
  <path d="M109.666664123535,74.1666641235352 L109.666664123535,74.1666641235352 " stroke="#000000" fill="none" stroke-width="0.3333333" stroke-opacity="1" />
  <path d="M109.666656494141,74.1666564941406 C108.838233947754,74.1666641235352 108.166656494141,74.8382339477539 108.166664123535,75.6666641235352 " stroke="#000000" fill="none" stroke-width="0.3333333" stroke-opacity="1" />
  <path d="M108.166664123535,75.6666641235352 L105.666664123535,75.6666641235352 " stroke="#000000" fill="none" stroke-width="0.3333333" stroke-opacity="1" />
  <path d="M105.666664123535,75.6666641235352 L105.666664123535,79.6666641235352 " stroke="#000000" fill="none" stroke-width="0.3333333" stroke-opacity="1" />
  <path d="M105.666664123535,79.6666641235352 L93.6666641235352,79.6666641235352 " stroke="#000000" fill="none" stroke-width="0.3333333" stroke-opacity="1" />
  <path d="M121.666664123535,119.666664123535 L105.666664123535,119.666664123535 " stroke="#000000" fill="none" stroke-width="0.3333333" stroke-opacity="1" />
  <path d="M105.666664123535,119.666664123535 L105.666664123535,83.6666641235352 " stroke="#000000" fill="none" stroke-width="0.3333333" stroke-opacity="1" />
  <path d="M105.666664123535,83.6666641235352 L93.6666641235352,83.6666641235352 " stroke="#000000" fill="none" stroke-width="0.3333333" stroke-opacity="1" />
  <path d="M123.666664123535,11.6666669845581 L123.666664123535,7.66666698455811 " stroke="#000000" fill="none" stroke-width="0.3333333" stroke-opacity="1" stroke-dasharray="1,0.3333333" />
  <path d="M123.666664123535,7.66666698455811 L53.6666641235352,7.66666698455811 " stroke="#000000" fill="none" stroke-width="0.3333333" stroke-opacity="1" stroke-dasharray="1,0.3333333" />
  <path d="M53.6666641235352,7.66666698455811 L53.6666641235352,15.6666669845581 " stroke="#000000" fill="none" stroke-width="0.3333333" stroke-opacity="1" stroke-dasharray="1,0.3333333" />
  <path d="M53.6666641235352,15.6666669845581 L46.077953338623,15.6666669845581 " stroke="#000000" fill="none" stroke-width="0.3333333" stroke-opacity="1" stroke-dasharray="1,0.3333333" />
  <path d="M25.6666660308838,19.6666660308838 L35.6666641235352,19.6666660308838 " stroke="#000000" fill="none" stroke-width="0.3333333" stroke-opacity="1" />
  <path d="M61.6666641235352,104.07795715332 L61.6666641235352,111.666664123535 " stroke="#000000" fill="none" stroke-width="0.3333333" stroke-opacity="1" />
  <path d="M73.6666641235352,119.666664123535 L75.6666641235352,119.666664123535 " stroke="#000000" fill="none" stroke-width="0.3333333" stroke-opacity="1" />
  <path d="M75.6666641235352,119.666664123535 L75.6666641235352,99.6666641235352 " stroke="#000000" fill="none" stroke-width="0.3333333" stroke-opacity="1" />
  <path d="M75.6666641235352,99.6666641235352 L79.6666641235352,99.6666641235352 " stroke="#000000" fill="none" stroke-width="0.3333333" stroke-opacity="1" />
  <path d="M65.6666641235352,87.6666641235352 L65.6666641235352,93.6666641235352 " stroke="#000000" fill="none" stroke-width="0.3333333" stroke-opacity="1" />
  <path d="M85.6666641235352,87.6666641235352 L85.6666641235352,93.6666641235352 " stroke="#000000" fill="none" stroke-width="0.3333333" stroke-opacity="1" stroke-dasharray="1,0.3333333" />
  <path d="M11.6666669845581,37.6666641235352 L5.66666698455811,37.6666641235352 " stroke="#000000" fill="none" stroke-width="0.3333333" stroke-opacity="1" />
  <path d="M5.66666698455811,37.6666641235352 L5.66666698455811,139.666656494141 " stroke="#000000" fill="none" stroke-width="0.3333333" stroke-opacity="1" />
  <path d="M5.66666698455811,139.666656494141 L61.6666641235352,139.666656494141 " stroke="#000000" fill="none" stroke-width="0.3333333" stroke-opacity="1" />
  <path d="M61.6666641235352,139.666656494141 L61.6666641235352,127.666664123535 " stroke="#000000" fill="none" stroke-width="0.3333333" stroke-opacity="1" />
  <path d="M93.6666641235352,63.6666641235352 L99.6666641235352,63.6666641235352 " stroke="#000000" fill="none" stroke-width="0.3333333" stroke-opacity="1" stroke-dasharray="1,0.3333333" />
  <path d="M99.6666641235352,63.6666641235352 L99.6666641235352,74.1666641235352 " stroke="#000000" fill="none" stroke-width="0.3333333" stroke-opacity="1" stroke-dasharray="1,0.3333333" />
  <path d="M99.6666564941406,74.1666641235352 C100.495086669922,74.1666564941406 101.166656494141,74.8382339477539 101.166656494141,75.6666564941406 C101.166656494141,75.6666564941406 101.166656494141,75.6666641235352 101.166656494141,75.6666641235352 " stroke="#000000" fill="none" stroke-width="0.3333333" stroke-opacity="1" stroke-dasharray="1,0.3333333" />
  <path d="M101.166664123535,75.6666641235352 L101.166664123535,75.6666641235352 " stroke="#000000" fill="none" stroke-width="0.3333333" stroke-opacity="1" stroke-dasharray="1,0.3333333" />
  <path d="M101.166656494141,75.6666564941406 C101.166656494141,76.4950866699219 100.495086669922,77.1666564941406 99.6666641235352,77.1666564941406 " stroke="#000000" fill="none" stroke-width="0.3333333" stroke-opacity="1" stroke-dasharray="1,0.3333333" />
  <path d="M99.6666641235352,77.1666641235352 L99.6666641235352,78.1666641235352 " stroke="#000000" fill="none" stroke-width="0.3333333" stroke-opacity="1" stroke-dasharray="1,0.3333333" />
  <path d="M99.6666564941406,78.1666641235352 C100.495086669922,78.1666564941406 101.166656494141,78.8382339477539 101.166656494141,79.6666564941406 C101.166656494141,79.6666564941406 101.166656494141,79.6666641235352 101.166656494141,79.6666641235352 " stroke="#000000" fill="none" stroke-width="0.3333333" stroke-opacity="1" stroke-dasharray="1,0.3333333" />
  <path d="M101.166664123535,79.6666641235352 L101.166664123535,79.6666641235352 " stroke="#000000" fill="none" stroke-width="0.3333333" stroke-opacity="1" stroke-dasharray="1,0.3333333" />
  <path d="M101.166656494141,79.6666564941406 C101.166656494141,80.4950866699219 100.495086669922,81.1666564941406 99.6666641235352,81.1666564941406 " stroke="#000000" fill="none" stroke-width="0.3333333" stroke-opacity="1" stroke-dasharray="1,0.3333333" />
  <path d="M99.6666641235352,81.1666641235352 L99.6666641235352,82.1666641235352 " stroke="#000000" fill="none" stroke-width="0.3333333" stroke-opacity="1" stroke-dasharray="1,0.3333333" />
  <path d="M99.6666564941406,82.1666641235352 C100.495086669922,82.1666564941406 101.166656494141,82.8382339477539 101.166656494141,83.6666564941406 C101.166656494141,83.6666564941406 101.166656494141,83.6666641235352 101.166656494141,83.6666641235352 " stroke="#000000" fill="none" stroke-width="0.3333333" stroke-opacity="1" stroke-dasharray="1,0.3333333" />
  <path d="M101.166664123535,83.6666641235352 L101.166664123535,83.6666641235352 " stroke="#000000" fill="none" stroke-width="0.3333333" stroke-opacity="1" stroke-dasharray="1,0.3333333" />
  <path d="M101.166656494141,83.6666564941406 C101.166656494141,84.4950866699219 100.495086669922,85.1666564941406 99.6666641235352,85.1666564941406 " stroke="#000000" fill="none" stroke-width="0.3333333" stroke-opacity="1" stroke-dasharray="1,0.3333333" />
  <path d="M99.6666641235352,85.1666641235352 L99.6666641235352,99.6666641235352 " stroke="#000000" fill="none" stroke-width="0.3333333" stroke-opacity="1" stroke-dasharray="1,0.3333333" />
  <path d="M99.6666641235352,99.6666641235352 L91.6666641235352,99.6666641235352 " stroke="#000000" fill="none" stroke-width="0.3333333" stroke-opacity="1" stroke-dasharray="1,0.3333333" />
  <path d="M71.2342376708984,57.6666641235352 L75.6666641235352,57.6666641235352 " stroke="#000000" fill="none" stroke-width="0.3333333" stroke-opacity="1" stroke-dasharray="1,0.3333333" />
  <path d="M75.6666641235352,57.6666641235352 L75.6666641235352,43.6666641235352 " stroke="#000000" fill="none" stroke-width="0.3333333" stroke-opacity="1" stroke-dasharray="1,0.3333333" />
  <path d="M75.6666641235352,43.6666641235352 L77.6666641235352,43.6666641235352 " stroke="#000000" fill="none" stroke-width="0.3333333" stroke-opacity="1" stroke-dasharray="1,0.3333333" />
  <path d="M104.099067687988,21.6666660308838 L99.6666641235352,21.6666660308838 " stroke="#000000" fill="none" stroke-width="0.3333333" stroke-opacity="1" stroke-dasharray="1,0.3333333" />
  <path d="M99.6666641235352,21.6666660308838 L99.6666641235352,38.1666641235352 " stroke="#000000" fill="none" stroke-width="0.3333333" stroke-opacity="1" stroke-dasharray="1,0.3333333" />
  <path d="M99.6666564941406,38.1666641235352 C100.495086669922,38.1666603088379 101.166656494141,38.8382339477539 101.166656494141,39.6666603088379 C101.166656494141,39.6666603088379 101.166656494141,39.6666641235352 101.166656494141,39.6666641235352 " stroke="#000000" fill="none" stroke-width="0.3333333" stroke-opacity="1" stroke-dasharray="1,0.3333333" />
  <path d="M101.166664123535,39.6666641235352 L101.166664123535,39.6666641235352 " stroke="#000000" fill="none" stroke-width="0.3333333" stroke-opacity="1" stroke-dasharray="1,0.3333333" />
  <path d="M101.166656494141,39.6666603088379 C101.166656494141,40.4950904846191 100.495086669922,41.1666603088379 99.6666641235352,41.1666603088379 " stroke="#000000" fill="none" stroke-width="0.3333333" stroke-opacity="1" stroke-dasharray="1,0.3333333" />
  <path d="M99.6666641235352,41.1666641235352 L99.6666641235352,50.1666641235352 " stroke="#000000" fill="none" stroke-width="0.3333333" stroke-opacity="1" stroke-dasharray="1,0.3333333" />
  <path d="M99.6666564941406,50.1666641235352 C100.495086669922,50.1666603088379 101.166656494141,50.8382339477539 101.166656494141,51.6666603088379 C101.166656494141,51.6666603088379 101.166656494141,51.6666641235352 101.166656494141,51.6666641235352 " stroke="#000000" fill="none" stroke-width="0.3333333" stroke-opacity="1" stroke-dasharray="1,0.3333333" />
  <path d="M101.166664123535,51.6666641235352 L101.166664123535,51.6666641235352 " stroke="#000000" fill="none" stroke-width="0.3333333" stroke-opacity="1" stroke-dasharray="1,0.3333333" />
  <path d="M101.166656494141,51.6666603088379 C101.166656494141,52.4950904846191 100.495086669922,53.1666603088379 99.6666641235352,53.1666603088379 " stroke="#000000" fill="none" stroke-width="0.3333333" stroke-opacity="1" stroke-dasharray="1,0.3333333" />
  <path d="M99.6666641235352,53.1666641235352 L99.6666641235352,55.6666641235352 " stroke="#000000" fill="none" stroke-width="0.3333333" stroke-opacity="1" stroke-dasharray="1,0.3333333" />
  <path d="M99.6666641235352,55.6666641235352 L93.6666641235352,55.6666641235352 " stroke="#000000" fill="none" stroke-width="0.3333333" stroke-opacity="1" stroke-dasharray="1,0.3333333" />
  <path d="M57.6666641235352,31.6666660308838 L73.6666641235352,31.6666660308838 L73.6666641235352,47.6666641235352 L57.6666641235352,47.6666641235352  z" stroke="none" fill="#FFFFFF" fill-rule="evenodd" stroke-width="0" fill-opacity="1" />
  <path d="M57.6666641235352,31.6666660308838 L73.6666641235352,31.6666660308838 " stroke="#000000" fill="none" stroke-width="0.3333333" stroke-opacity="1" />
  <path d="M57.6666641235352,31.6666660308838 L73.6666641235352,31.6666660308838 L73.6666641235352,47.6666641235352 L57.6666641235352,47.6666641235352  z" stroke="#000000" fill="none" stroke-width="0.3333333" stroke-opacity="1" />
  <text x="63.2446556091309" y="35.4459648132324" dx="0" dy="0" font-family="Tahoma" font-size="1.39999991059304pt" fill="#000000" style="text-anchor:start">A12</text>
  <text x="60.3974914550781" y="43.279296875" dx="0" dy="0" font-family="Tahoma" font-size="1.39999991059304pt" fill="#000000" style="text-anchor:start">Disruptor</text>
  <path d="M47.6666603088379,39.6666603088379 C47.6666603088379,42.9803695678711 44.9803695678711,45.6666603088379 41.6666641235352,45.6666603088379 C38.352954864502,45.6666641235352 35.6666641235352,42.9803695678711 35.6666641235352,39.6666641235352 C35.6666641235352,36.3529586791992 38.3529510498047,33.6666641235352 41.6666603088379,33.6666641235352 C44.9803657531738,33.6666641235352 47.6666603088379,36.3529510498047 47.6666603088379,39.6666564941406 " stroke="none" fill="#FFFFFF" fill-rule="nonzero" stroke-width="0" fill-opacity="1" />
  <text x="39.2634544372559" y="40.4459648132324" dx="0" dy="0" font-family="Tahoma" font-size="1.39999991059304pt" fill="#000000" style="text-anchor:start">T12</text>
  <path d="M47.6666603088379,39.6666603088379 C47.6666603088379,42.9803695678711 44.9803695678711,45.6666603088379 41.6666641235352,45.6666603088379 C38.352954864502,45.6666641235352 35.6666641235352,42.9803695678711 35.6666641235352,39.6666641235352 C35.6666641235352,36.3529586791992 38.3529510498047,33.6666641235352 41.6666603088379,33.6666641235352 C44.9803657531738,33.6666641235352 47.6666603088379,36.3529510498047 47.6666603088379,39.6666564941406 " stroke="#000000" fill="none" stroke-width="0.3333333" stroke-opacity="1" />
  <path d="M41.6666641235352,33.6666641235352 L47.6666641235352,39.6666641235352 L41.6666641235352,45.6666641235352 L35.6666641235352,39.6666641235352 L41.6666641235352,33.6666641235352  z" stroke="none" fill="none" fill-rule="nonzero" stroke-width="0" fill-opacity="0" />
  <path d="M41.6666641235352,33.6666641235352 L47.6666641235352,39.6666641235352 L41.6666641235352,45.6666641235352 L35.6666641235352,39.6666641235352 L41.6666641235352,33.6666641235352  z" stroke="#FF0000" fill="none" stroke-width="0.3333333" stroke-opacity="1" />
  <text x="35.8859329223633" y="48.5" dx="0" dy="0" font-family="Tahoma" font-size="1.39999991059304pt" fill="#000000" style="text-anchor:start">Disruption</text>
  <path d="M57.6666641235352,39.6666641235352 L47.6666641235352,39.6666641235352 " stroke="#000000" fill="none" stroke-width="0.3333333" stroke-opacity="1" />
  <path d="M57.6666603088379,38.4645805358887 L58.8687400817871,39.6666603088379 L57.6666603088379,40.8687400817871 L56.4645805358887,39.6666603088379  z" stroke="none" fill="#FF0000" fill-rule="evenodd" stroke-width="0" fill-opacity="1" />
  <path d="M57.6666603088379,38.4645805358887 L58.8687400817871,39.6666603088379 L57.6666603088379,40.8687400817871 L56.4645805358887,39.6666603088379  z" stroke="#000000" fill="none" stroke-width="0.3333333" stroke-opacity="1" />
  <path d="M65.6666641235352,47.6666641235352 L65.6666641235352,53.6666641235352 " stroke="#000000" fill="none" stroke-width="0.3333333" stroke-opacity="1" />
  <path d="M35.6666641235352,39.6666641235352 L29.6666660308838,39.6666641235352 " stroke="#000000" fill="none" stroke-width="0.3333333" stroke-opacity="1" />
  <path d="M29.6666660308838,39.6666641235352 L29.6666660308838,55.6666641235352 " stroke="#000000" fill="none" stroke-width="0.3333333" stroke-opacity="1" />
  <path d="M29.6666660308838,55.6666641235352 L25.6666660308838,55.6666641235352 " stroke="#000000" fill="none" stroke-width="0.3333333" stroke-opacity="1" />
  <path d="M35.6666641235352,39.6666641235352 L29.6666660308838,39.6666641235352 " stroke="#000000" fill="none" stroke-width="0.3333333" stroke-opacity="1" />
  <path d="M29.6666660308838,39.6666641235352 L29.6666660308838,58.1666641235352 " stroke="#000000" fill="none" stroke-width="0.3333333" stroke-opacity="1" />
  <path d="M29.6666622161865,58.1666641235352 C30.4950904846191,58.1666603088379 31.1666641235352,58.8382339477539 31.1666641235352,59.6666603088379 C31.1666641235352,59.6666603088379 31.1666641235352,59.6666641235352 31.1666641235352,59.6666641235352 " stroke="#000000" fill="none" stroke-width="0.3333333" stroke-opacity="1" />
  <path d="M31.1666660308838,59.6666641235352 L31.1666660308838,59.6666641235352 " stroke="#000000" fill="none" stroke-width="0.3333333" stroke-opacity="1" />
  <path d="M31.1666641235352,59.6666603088379 C31.1666641235352,60.4950904846191 30.4950923919678,61.1666603088379 29.6666660308838,61.1666603088379 " stroke="#000000" fill="none" stroke-width="0.3333333" stroke-opacity="1" />
  <path d="M29.6666660308838,61.1666641235352 L29.6666660308838,75.6666641235352 " stroke="#000000" fill="none" stroke-width="0.3333333" stroke-opacity="1" />
  <path d="M29.6666660308838,75.6666641235352 L25.6666660308838,75.6666641235352 " stroke="#000000" fill="none" stroke-width="0.3333333" stroke-opacity="1" />
  <path d="M35.6666641235352,39.6666641235352 L29.6666660308838,39.6666641235352 " stroke="#000000" fill="none" stroke-width="0.3333333" stroke-opacity="1" />
  <path d="M29.6666660308838,39.6666641235352 L29.6666660308838,58.1666641235352 " stroke="#000000" fill="none" stroke-width="0.3333333" stroke-opacity="1" />
  <path d="M29.6666622161865,58.1666641235352 C30.4950904846191,58.1666603088379 31.1666641235352,58.8382339477539 31.1666641235352,59.6666603088379 C31.1666641235352,59.6666603088379 31.1666641235352,59.6666641235352 31.1666641235352,59.6666641235352 " stroke="#000000" fill="none" stroke-width="0.3333333" stroke-opacity="1" />
  <path d="M31.1666660308838,59.6666641235352 L31.1666660308838,59.6666641235352 " stroke="#000000" fill="none" stroke-width="0.3333333" stroke-opacity="1" />
  <path d="M31.1666641235352,59.6666603088379 C31.1666641235352,60.4950904846191 30.4950923919678,61.1666603088379 29.6666660308838,61.1666603088379 " stroke="#000000" fill="none" stroke-width="0.3333333" stroke-opacity="1" />
  <path d="M29.6666660308838,61.1666641235352 L29.6666660308838,78.1666641235352 " stroke="#000000" fill="none" stroke-width="0.3333333" stroke-opacity="1" />
  <path d="M29.6666622161865,78.1666641235352 C30.4950904846191,78.1666564941406 31.1666641235352,78.8382339477539 31.1666641235352,79.6666564941406 C31.1666641235352,79.6666564941406 31.1666641235352,79.6666641235352 31.1666641235352,79.6666641235352 " stroke="#000000" fill="none" stroke-width="0.3333333" stroke-opacity="1" />
  <path d="M31.1666660308838,79.6666641235352 L31.1666660308838,79.6666641235352 " stroke="#000000" fill="none" stroke-width="0.3333333" stroke-opacity="1" />
  <path d="M31.1666641235352,79.6666564941406 C31.1666641235352,80.4950866699219 30.4950923919678,81.1666564941406 29.6666660308838,81.1666564941406 " stroke="#000000" fill="none" stroke-width="0.3333333" stroke-opacity="1" />
  <path d="M29.6666660308838,81.1666641235352 L29.6666660308838,95.6666641235352 " stroke="#000000" fill="none" stroke-width="0.3333333" stroke-opacity="1" />
  <path d="M29.6666660308838,95.6666641235352 L25.6666660308838,95.6666641235352 " stroke="#000000" fill="none" stroke-width="0.3333333" stroke-opacity="1" />
  <path d="M35.6666641235352,39.6666641235352 L29.6666660308838,39.6666641235352 " stroke="#000000" fill="none" stroke-width="0.3333333" stroke-opacity="1" />
  <path d="M29.6666660308838,39.6666641235352 L29.6666660308838,58.1666641235352 " stroke="#000000" fill="none" stroke-width="0.3333333" stroke-opacity="1" />
  <path d="M29.6666622161865,58.1666641235352 C30.4950904846191,58.1666603088379 31.1666641235352,58.8382339477539 31.1666641235352,59.6666603088379 C31.1666641235352,59.6666603088379 31.1666641235352,59.6666641235352 31.1666641235352,59.6666641235352 " stroke="#000000" fill="none" stroke-width="0.3333333" stroke-opacity="1" />
  <path d="M31.1666660308838,59.6666641235352 L31.1666660308838,59.6666641235352 " stroke="#000000" fill="none" stroke-width="0.3333333" stroke-opacity="1" />
  <path d="M31.1666641235352,59.6666603088379 C31.1666641235352,60.4950904846191 30.4950923919678,61.1666603088379 29.6666660308838,61.1666603088379 " stroke="#000000" fill="none" stroke-width="0.3333333" stroke-opacity="1" />
  <path d="M29.6666660308838,61.1666641235352 L29.6666660308838,78.1666641235352 " stroke="#000000" fill="none" stroke-width="0.3333333" stroke-opacity="1" />
  <path d="M29.6666622161865,78.1666641235352 C30.4950904846191,78.1666564941406 31.1666641235352,78.8382339477539 31.1666641235352,79.6666564941406 C31.1666641235352,79.6666564941406 31.1666641235352,79.6666641235352 31.1666641235352,79.6666641235352 " stroke="#000000" fill="none" stroke-width="0.3333333" stroke-opacity="1" />
  <path d="M31.1666660308838,79.6666641235352 L31.1666660308838,79.6666641235352 " stroke="#000000" fill="none" stroke-width="0.3333333" stroke-opacity="1" />
  <path d="M31.1666641235352,79.6666564941406 C31.1666641235352,80.4950866699219 30.4950923919678,81.1666564941406 29.6666660308838,81.1666564941406 " stroke="#000000" fill="none" stroke-width="0.3333333" stroke-opacity="1" />
  <path d="M29.6666660308838,81.1666641235352 L29.6666660308838,98.1666641235352 " stroke="#000000" fill="none" stroke-width="0.3333333" stroke-opacity="1" />
  <path d="M29.6666622161865,98.1666641235352 C30.4950904846191,98.1666564941406 31.1666641235352,98.8382339477539 31.1666641235352,99.6666564941406 C31.1666641235352,99.6666564941406 31.1666641235352,99.6666641235352 31.1666641235352,99.6666641235352 " stroke="#000000" fill="none" stroke-width="0.3333333" stroke-opacity="1" />
  <path d="M31.1666660308838,99.6666641235352 L31.1666660308838,99.6666641235352 " stroke="#000000" fill="none" stroke-width="0.3333333" stroke-opacity="1" />
  <path d="M31.1666641235352,99.6666564941406 C31.1666641235352,100.495086669922 30.4950923919678,101.166656494141 29.6666660308838,101.166656494141 " stroke="#000000" fill="none" stroke-width="0.3333333" stroke-opacity="1" />
  <path d="M29.6666660308838,101.166664123535 L29.6666660308838,115.666664123535 " stroke="#000000" fill="none" stroke-width="0.3333333" stroke-opacity="1" />
  <path d="M29.6666660308838,115.666664123535 L25.6666660308838,115.666664123535 " stroke="#000000" fill="none" stroke-width="0.3333333" stroke-opacity="1" />
  <path d="M77.6666641235352,55.6666641235352 L77.1666641235352,55.6666641235352 " stroke="#000000" fill="none" stroke-width="0.3333333" stroke-opacity="1" stroke-dasharray="1,0.3333333" />
  <path d="M77.1666564941406,55.6666603088379 C77.1666564941406,54.8382339477539 76.4950866699219,54.1666603088379 75.6666564941406,54.1666641235352 C75.6666564941406,54.1666603088379 75.6666564941406,54.1666641235352 75.6666564941406,54.1666641235352 " stroke="#000000" fill="none" stroke-width="0.3333333" stroke-opacity="1" stroke-dasharray="1,0.3333333" />
  <path d="M75.6666641235352,54.1666641235352 L75.6666641235352,54.1666641235352 " stroke="#000000" fill="none" stroke-width="0.3333333" stroke-opacity="1" stroke-dasharray="1,0.3333333" />
  <path d="M75.6666564941406,54.1666603088379 C74.8382339477539,54.1666641235352 74.1666564941406,54.8382377624512 74.1666641235352,55.6666641235352 " stroke="#000000" fill="none" stroke-width="0.3333333" stroke-opacity="1" stroke-dasharray="1,0.3333333" />
  <path d="M74.1666641235352,55.6666641235352 L73.6666641235352,55.6666641235352 " stroke="#000000" fill="none" stroke-width="0.3333333" stroke-opacity="1" stroke-dasharray="1,0.3333333" />
  <path d="M73.6666641235352,55.6666641235352 L73.6666641235352,51.6666641235352 " stroke="#000000" fill="none" stroke-width="0.3333333" stroke-opacity="1" stroke-dasharray="1,0.3333333" />
  <path d="M73.6666641235352,51.6666641235352 L67.1666641235352,51.6666641235352 " stroke="#000000" fill="none" stroke-width="0.3333333" stroke-opacity="1" stroke-dasharray="1,0.3333333" />
  <path d="M67.1666564941406,51.6666603088379 C67.1666564941406,50.8382339477539 66.4950866699219,50.1666603088379 65.6666564941406,50.1666641235352 C65.6666564941406,50.1666603088379 65.6666564941406,50.1666641235352 65.6666564941406,50.1666641235352 " stroke="#000000" fill="none" stroke-width="0.3333333" stroke-opacity="1" stroke-dasharray="1,0.3333333" />
  <path d="M65.6666641235352,50.1666641235352 L65.6666641235352,50.1666641235352 " stroke="#000000" fill="none" stroke-width="0.3333333" stroke-opacity="1" stroke-dasharray="1,0.3333333" />
  <path d="M65.6666564941406,50.1666603088379 C64.8382339477539,50.1666641235352 64.1666564941406,50.8382377624512 64.1666641235352,51.6666641235352 " stroke="#000000" fill="none" stroke-width="0.3333333" stroke-opacity="1" stroke-dasharray="1,0.3333333" />
  <path d="M64.1666641235352,51.6666641235352 L53.6666641235352,51.6666641235352 " stroke="#000000" fill="none" stroke-width="0.3333333" stroke-opacity="1" stroke-dasharray="1,0.3333333" />
  <path d="M53.6666641235352,51.6666641235352 L53.6666641235352,41.1666641235352 " stroke="#000000" fill="none" stroke-width="0.3333333" stroke-opacity="1" stroke-dasharray="1,0.3333333" />
  <path d="M53.6666641235352,41.1666603088379 C54.4950904846191,41.1666603088379 55.1666603088379,40.4950904846191 55.1666603088379,39.6666603088379 " stroke="#000000" fill="none" stroke-width="0.3333333" stroke-opacity="1" stroke-dasharray="1,0.3333333" />
  <path d="M55.1666641235352,39.6666641235352 L55.1666641235352,39.6666641235352 " stroke="#000000" fill="none" stroke-width="0.3333333" stroke-opacity="1" stroke-dasharray="1,0.3333333" />
  <path d="M55.1666603088379,39.6666603088379 C55.1666603088379,38.8382339477539 54.4950904846191,38.1666603088379 53.6666603088379,38.1666641235352 C53.6666603088379,38.1666603088379 53.6666603088379,38.1666641235352 53.6666603088379,38.1666641235352 " stroke="#000000" fill="none" stroke-width="0.3333333" stroke-opacity="1" stroke-dasharray="1,0.3333333" />
  <path d="M53.6666641235352,38.1666641235352 L53.6666641235352,23.6666660308838 " stroke="#000000" fill="none" stroke-width="0.3333333" stroke-opacity="1" stroke-dasharray="1,0.3333333" />
  <path d="M53.6666641235352,23.6666660308838 L46.077953338623,23.6666660308838 " stroke="#000000" fill="none" stroke-width="0.3333333" stroke-opacity="1" stroke-dasharray="1,0.3333333" />
</svg>